<svg width="244" height="80" viewBox="0 0 244 80" fill="none" xmlns="http://www.w3.org/2000/svg">
    <rect x="0.75" y="0.75" width="242.5" height="78.5" rx="15.25" fill="#585858"/>
    <path d="M87.4148 29H84.1186V18.8182H87.5192C88.5168 18.8182 89.3736 19.022 90.0895 19.4297C90.8054 19.834 91.3539 20.4157 91.7351 21.1747C92.1196 21.9304 92.3118 22.8369 92.3118 23.8942C92.3118 24.9548 92.1179 25.8662 91.7301 26.6286C91.3456 27.3909 90.7888 27.9775 90.0597 28.3885C89.3305 28.7962 88.4489 29 87.4148 29ZM85.6548 27.6577H87.3303C88.1058 27.6577 88.7505 27.5118 89.2642 27.2202C89.7779 26.9252 90.1624 26.4993 90.4176 25.9425C90.6728 25.3823 90.8004 24.6996 90.8004 23.8942C90.8004 23.0954 90.6728 22.4176 90.4176 21.8608C90.1657 21.304 89.7895 20.8814 89.2891 20.593C88.7886 20.3047 88.1671 20.1605 87.4247 20.1605H85.6548V27.6577ZM97.3194 29.1541C96.6035 29.1541 95.9788 28.9901 95.4451 28.6619C94.9115 28.3338 94.4972 27.8748 94.2022 27.2848C93.9073 26.6948 93.7598 26.0054 93.7598 25.2166C93.7598 24.4245 93.9073 23.7318 94.2022 23.1385C94.4972 22.5452 94.9115 22.0845 95.4451 21.7564C95.9788 21.4283 96.6035 21.2642 97.3194 21.2642C98.0353 21.2642 98.6601 21.4283 99.1937 21.7564C99.7273 22.0845 100.142 22.5452 100.437 23.1385C100.732 23.7318 100.879 24.4245 100.879 25.2166C100.879 26.0054 100.732 26.6948 100.437 27.2848C100.142 27.8748 99.7273 28.3338 99.1937 28.6619C98.6601 28.9901 98.0353 29.1541 97.3194 29.1541ZM97.3244 27.9062C97.7884 27.9062 98.1729 27.7836 98.4778 27.5384C98.7827 27.2931 99.0081 26.9666 99.1539 26.5589C99.3031 26.1513 99.3777 25.7022 99.3777 25.2116C99.3777 24.7244 99.3031 24.277 99.1539 23.8693C99.0081 23.4583 98.7827 23.1286 98.4778 22.88C98.1729 22.6314 97.7884 22.5071 97.3244 22.5071C96.8571 22.5071 96.4693 22.6314 96.161 22.88C95.8561 23.1286 95.6291 23.4583 95.4799 23.8693C95.3341 24.277 95.2612 24.7244 95.2612 25.2116C95.2612 25.7022 95.3341 26.1513 95.4799 26.5589C95.6291 26.9666 95.8561 27.2931 96.161 27.5384C96.4693 27.7836 96.8571 27.9062 97.3244 27.9062ZM103.961 29L101.714 21.3636H103.251L104.747 26.9716H104.822L106.323 21.3636H107.859L109.351 26.9467H109.425L110.912 21.3636H112.448L110.206 29H108.689L107.138 23.4865H107.024L105.473 29H103.961ZM115.345 24.4659V29H113.859V21.3636H115.286V22.6065H115.38C115.556 22.2022 115.831 21.8774 116.205 21.6321C116.583 21.3868 117.059 21.2642 117.632 21.2642C118.152 21.2642 118.608 21.3736 118.999 21.5923C119.39 21.8078 119.694 22.1293 119.909 22.5568C120.125 22.9844 120.232 23.513 120.232 24.1428V29H118.746V24.3217C118.746 23.7682 118.602 23.3357 118.313 23.0241C118.025 22.7093 117.629 22.5518 117.125 22.5518C116.78 22.5518 116.474 22.6264 116.205 22.7756C115.94 22.9247 115.73 23.1435 115.574 23.4318C115.421 23.7169 115.345 24.0616 115.345 24.4659ZM123.712 18.8182V29H122.226V18.8182H123.712ZM128.929 29.1541C128.213 29.1541 127.588 28.9901 127.055 28.6619C126.521 28.3338 126.107 27.8748 125.812 27.2848C125.517 26.6948 125.369 26.0054 125.369 25.2166C125.369 24.4245 125.517 23.7318 125.812 23.1385C126.107 22.5452 126.521 22.0845 127.055 21.7564C127.588 21.4283 128.213 21.2642 128.929 21.2642C129.645 21.2642 130.269 21.4283 130.803 21.7564C131.337 22.0845 131.751 22.5452 132.046 23.1385C132.341 23.7318 132.488 24.4245 132.488 25.2166C132.488 26.0054 132.341 26.6948 132.046 27.2848C131.751 27.8748 131.337 28.3338 130.803 28.6619C130.269 28.9901 129.645 29.1541 128.929 29.1541ZM128.934 27.9062C129.398 27.9062 129.782 27.7836 130.087 27.5384C130.392 27.2931 130.617 26.9666 130.763 26.5589C130.912 26.1513 130.987 25.7022 130.987 25.2116C130.987 24.7244 130.912 24.277 130.763 23.8693C130.617 23.4583 130.392 23.1286 130.087 22.88C129.782 22.6314 129.398 22.5071 128.934 22.5071C128.466 22.5071 128.079 22.6314 127.77 22.88C127.465 23.1286 127.238 23.4583 127.089 23.8693C126.943 24.277 126.871 24.7244 126.871 25.2116C126.871 25.7022 126.943 26.1513 127.089 26.5589C127.238 26.9666 127.465 27.2931 127.77 27.5384C128.079 27.7836 128.466 27.9062 128.934 27.9062ZM136.37 29.169C135.886 29.169 135.449 29.0795 135.058 28.9006C134.666 28.7183 134.357 28.4548 134.128 28.1101C133.902 27.7654 133.79 27.3428 133.79 26.8423C133.79 26.4115 133.873 26.0568 134.038 25.7784C134.204 25.5 134.428 25.2796 134.71 25.1172C134.991 24.9548 135.306 24.8321 135.654 24.7493C136.002 24.6664 136.357 24.6035 136.718 24.5604C137.175 24.5073 137.547 24.4643 137.832 24.4311C138.117 24.3946 138.324 24.3366 138.453 24.2571C138.582 24.1776 138.647 24.0483 138.647 23.8693V23.8345C138.647 23.4003 138.524 23.0639 138.279 22.8253C138.037 22.5866 137.676 22.4673 137.195 22.4673C136.695 22.4673 136.3 22.5784 136.012 22.8004C135.727 23.0192 135.53 23.2628 135.42 23.5312L134.023 23.2131C134.189 22.7491 134.431 22.3745 134.749 22.0895C135.071 21.8011 135.44 21.5923 135.858 21.4631C136.276 21.3305 136.715 21.2642 137.175 21.2642C137.48 21.2642 137.804 21.3007 138.145 21.3736C138.49 21.4432 138.811 21.5724 139.109 21.7614C139.411 21.9503 139.658 22.2204 139.85 22.5717C140.042 22.9197 140.138 23.3722 140.138 23.929V29H138.687V27.956H138.627C138.531 28.1482 138.387 28.3371 138.195 28.5227C138.002 28.7083 137.755 28.8625 137.454 28.9851C137.152 29.1077 136.791 29.169 136.37 29.169ZM136.693 27.9759C137.104 27.9759 137.455 27.8946 137.747 27.7322C138.042 27.5698 138.266 27.3577 138.418 27.0959C138.574 26.8307 138.652 26.5473 138.652 26.2457V25.2614C138.599 25.3144 138.496 25.3641 138.344 25.4105C138.195 25.4536 138.024 25.4917 137.832 25.5249C137.639 25.5547 137.452 25.5829 137.27 25.6094C137.088 25.6326 136.935 25.6525 136.812 25.669C136.524 25.7055 136.261 25.7668 136.022 25.853C135.787 25.9392 135.598 26.0634 135.455 26.2259C135.316 26.3849 135.246 26.5971 135.246 26.8622C135.246 27.2301 135.382 27.5085 135.654 27.6974C135.926 27.883 136.272 27.9759 136.693 27.9759ZM144.977 29.1491C144.361 29.1491 143.81 28.9917 143.327 28.6768C142.846 28.3587 142.468 27.9062 142.193 27.3196C141.921 26.7296 141.785 26.022 141.785 25.1967C141.785 24.3714 141.923 23.6655 142.198 23.0788C142.476 22.4922 142.858 22.0431 143.341 21.7315C143.825 21.42 144.374 21.2642 144.987 21.2642C145.461 21.2642 145.842 21.3438 146.131 21.5028C146.422 21.6586 146.648 21.8409 146.807 22.0497C146.969 22.2585 147.095 22.4425 147.184 22.6016H147.274V18.8182H148.76V29H147.309V27.8118H147.184C147.095 27.9742 146.966 28.1598 146.797 28.3686C146.631 28.5774 146.402 28.7597 146.111 28.9155C145.819 29.0713 145.441 29.1491 144.977 29.1491ZM145.305 27.8814C145.733 27.8814 146.094 27.7687 146.389 27.5433C146.687 27.3146 146.913 26.9981 147.065 26.5938C147.221 26.1894 147.299 25.7187 147.299 25.1818C147.299 24.6515 147.223 24.1875 147.07 23.7898C146.918 23.392 146.694 23.0821 146.399 22.8601C146.104 22.638 145.739 22.527 145.305 22.527C144.858 22.527 144.485 22.643 144.187 22.875C143.888 23.107 143.663 23.4235 143.51 23.8246C143.361 24.2256 143.287 24.678 143.287 25.1818C143.287 25.6922 143.363 26.1513 143.515 26.5589C143.668 26.9666 143.893 27.2898 144.192 27.5284C144.493 27.7637 144.864 27.8814 145.305 27.8814ZM157.804 29.1541C157.088 29.1541 156.463 28.9901 155.93 28.6619C155.396 28.3338 154.982 27.8748 154.687 27.2848C154.392 26.6948 154.244 26.0054 154.244 25.2166C154.244 24.4245 154.392 23.7318 154.687 23.1385C154.982 22.5452 155.396 22.0845 155.93 21.7564C156.463 21.4283 157.088 21.2642 157.804 21.2642C158.52 21.2642 159.144 21.4283 159.678 21.7564C160.212 22.0845 160.626 22.5452 160.921 23.1385C161.216 23.7318 161.363 24.4245 161.363 25.2166C161.363 26.0054 161.216 26.6948 160.921 27.2848C160.626 27.8748 160.212 28.3338 159.678 28.6619C159.144 28.9901 158.52 29.1541 157.804 29.1541ZM157.809 27.9062C158.273 27.9062 158.657 27.7836 158.962 27.5384C159.267 27.2931 159.492 26.9666 159.638 26.5589C159.787 26.1513 159.862 25.7022 159.862 25.2116C159.862 24.7244 159.787 24.277 159.638 23.8693C159.492 23.4583 159.267 23.1286 158.962 22.88C158.657 22.6314 158.273 22.5071 157.809 22.5071C157.341 22.5071 156.954 22.6314 156.645 22.88C156.34 23.1286 156.113 23.4583 155.964 23.8693C155.818 24.277 155.746 24.7244 155.746 25.2116C155.746 25.7022 155.818 26.1513 155.964 26.5589C156.113 26.9666 156.34 27.2931 156.645 27.5384C156.954 27.7836 157.341 27.9062 157.809 27.9062ZM164.509 24.4659V29H163.023V21.3636H164.45V22.6065H164.544C164.72 22.2022 164.995 21.8774 165.369 21.6321C165.747 21.3868 166.223 21.2642 166.796 21.2642C167.317 21.2642 167.772 21.3736 168.163 21.5923C168.554 21.8078 168.858 22.1293 169.073 22.5568C169.289 22.9844 169.396 23.513 169.396 24.1428V29H167.91V24.3217C167.91 23.7682 167.766 23.3357 167.477 23.0241C167.189 22.7093 166.793 22.5518 166.289 22.5518C165.944 22.5518 165.638 22.6264 165.369 22.7756C165.104 22.9247 164.894 23.1435 164.738 23.4318C164.585 23.7169 164.509 24.0616 164.509 24.4659ZM178.66 21.3636V22.5568H174.488V21.3636H178.66ZM175.607 19.5341H177.094V26.7578C177.094 27.0462 177.137 27.2633 177.223 27.4091C177.309 27.5516 177.42 27.6494 177.556 27.7024C177.695 27.7521 177.846 27.777 178.008 27.777C178.128 27.777 178.232 27.7687 178.322 27.7521C178.411 27.7356 178.481 27.7223 178.53 27.7124L178.799 28.9403C178.713 28.9735 178.59 29.0066 178.431 29.0398C178.272 29.0762 178.073 29.0961 177.834 29.0994C177.443 29.1061 177.079 29.0365 176.741 28.8906C176.403 28.7448 176.129 28.5194 175.92 28.2145C175.711 27.9096 175.607 27.5268 175.607 27.0661V19.5341ZM181.955 24.4659V29H180.468V18.8182H181.935V22.6065H182.029C182.208 22.1955 182.482 21.8691 182.849 21.6271C183.217 21.3852 183.698 21.2642 184.291 21.2642C184.815 21.2642 185.272 21.3719 185.663 21.5874C186.058 21.8028 186.363 22.1243 186.578 22.5518C186.797 22.9761 186.906 23.5064 186.906 24.1428V29H185.42V24.3217C185.42 23.7616 185.276 23.3274 184.987 23.0192C184.699 22.7076 184.298 22.5518 183.784 22.5518C183.433 22.5518 183.118 22.6264 182.839 22.7756C182.564 22.9247 182.347 23.1435 182.188 23.4318C182.032 23.7169 181.955 24.0616 181.955 24.4659ZM192.181 29.1541C191.429 29.1541 190.781 28.9934 190.237 28.6719C189.697 28.3471 189.279 27.8913 188.984 27.3047C188.693 26.7147 188.547 26.0237 188.547 25.2315C188.547 24.4493 188.693 23.7599 188.984 23.1634C189.279 22.5668 189.69 22.1011 190.217 21.7663C190.748 21.4316 191.367 21.2642 192.077 21.2642C192.508 21.2642 192.925 21.3355 193.33 21.478C193.734 21.6205 194.097 21.8442 194.418 22.1491C194.74 22.4541 194.993 22.8501 195.179 23.3374C195.365 23.8213 195.457 24.4096 195.457 25.1023V25.6293H189.387V24.5156H194.001C194.001 24.1245 193.921 23.7782 193.762 23.4766C193.603 23.1716 193.379 22.9313 193.091 22.7557C192.806 22.58 192.471 22.4922 192.087 22.4922C191.669 22.4922 191.304 22.5949 190.993 22.8004C190.685 23.0026 190.446 23.2678 190.277 23.5959C190.111 23.9207 190.028 24.2737 190.028 24.6548V25.5249C190.028 26.0353 190.118 26.4695 190.297 26.8274C190.479 27.1854 190.733 27.4588 191.058 27.6477C191.382 27.8333 191.762 27.9261 192.196 27.9261C192.478 27.9261 192.735 27.8864 192.967 27.8068C193.199 27.724 193.399 27.6013 193.568 27.4389C193.737 27.2765 193.866 27.076 193.956 26.8374L195.363 27.0909C195.25 27.5052 195.048 27.8681 194.756 28.1797C194.468 28.4879 194.105 28.7282 193.668 28.9006C193.233 29.0696 192.738 29.1541 192.181 29.1541Z" fill="white"/>
    <path d="M84.5213 59H79.6094L85.9893 40.0909H92.0739L98.4538 59H93.5419L89.1009 44.8551H88.9531L84.5213 59ZM83.8658 51.5582H94.1328V55.0298H83.8658V51.5582ZM100.49 64.3182V44.8182H104.958V47.2464H105.097C105.282 46.8156 105.543 46.4001 105.882 46C106.226 45.5999 106.663 45.2737 107.193 45.0213C107.728 44.7628 108.368 44.6335 109.113 44.6335C110.098 44.6335 111.018 44.892 111.874 45.4091C112.736 45.9261 113.431 46.7232 113.961 47.8004C114.49 48.8776 114.755 50.2502 114.755 51.9183C114.755 53.5249 114.499 54.8698 113.988 55.9531C113.484 57.0365 112.8 57.849 111.939 58.3906C111.083 58.9323 110.132 59.2031 109.086 59.2031C108.372 59.2031 107.753 59.0862 107.23 58.8523C106.707 58.6184 106.266 58.3106 105.909 57.929C105.559 57.5473 105.288 57.138 105.097 56.701H105.005V64.3182H100.49ZM104.912 51.9091C104.912 52.6723 105.014 53.3371 105.217 53.9034C105.426 54.4697 105.725 54.9098 106.113 55.2237C106.507 55.5315 106.977 55.6854 107.525 55.6854C108.079 55.6854 108.55 55.5315 108.938 55.2237C109.326 54.9098 109.618 54.4697 109.815 53.9034C110.018 53.3371 110.12 52.6723 110.12 51.9091C110.12 51.1458 110.018 50.4841 109.815 49.924C109.618 49.3639 109.326 48.9299 108.938 48.6222C108.556 48.3144 108.085 48.1605 107.525 48.1605C106.971 48.1605 106.5 48.3113 106.113 48.6129C105.725 48.9145 105.426 49.3454 105.217 49.9055C105.014 50.4657 104.912 51.1335 104.912 51.9091ZM117.121 64.3182V44.8182H121.589V47.2464H121.728C121.912 46.8156 122.174 46.4001 122.513 46C122.857 45.5999 123.294 45.2737 123.824 45.0213C124.359 44.7628 124.999 44.6335 125.744 44.6335C126.729 44.6335 127.649 44.892 128.505 45.4091C129.367 45.9261 130.062 46.7232 130.591 47.8004C131.121 48.8776 131.385 50.2502 131.385 51.9183C131.385 53.5249 131.13 54.8698 130.619 55.9531C130.114 57.0365 129.431 57.849 128.569 58.3906C127.714 58.9323 126.763 59.2031 125.716 59.2031C125.002 59.2031 124.384 59.0862 123.861 58.8523C123.337 58.6184 122.897 58.3106 122.54 57.929C122.189 57.5473 121.919 57.138 121.728 56.701H121.635V64.3182H117.121ZM121.543 51.9091C121.543 52.6723 121.645 53.3371 121.848 53.9034C122.057 54.4697 122.356 54.9098 122.743 55.2237C123.137 55.5315 123.608 55.6854 124.156 55.6854C124.71 55.6854 125.181 55.5315 125.569 55.2237C125.956 54.9098 126.249 54.4697 126.446 53.9034C126.649 53.3371 126.751 52.6723 126.751 51.9091C126.751 51.1458 126.649 50.4841 126.446 49.924C126.249 49.3639 125.956 48.9299 125.569 48.6222C125.187 48.3144 124.716 48.1605 124.156 48.1605C123.602 48.1605 123.131 48.3113 122.743 48.6129C122.356 48.9145 122.057 49.3454 121.848 49.9055C121.645 50.4657 121.543 51.1335 121.543 51.9091ZM149.558 45.7599C149.497 45.0829 149.223 44.5566 148.737 44.1811C148.256 43.7995 147.57 43.6087 146.678 43.6087C146.087 43.6087 145.594 43.6856 145.2 43.8395C144.806 43.9934 144.511 44.2057 144.314 44.4766C144.117 44.7412 144.015 45.0459 144.009 45.3906C143.997 45.6738 144.052 45.9231 144.175 46.1385C144.305 46.3539 144.489 46.5447 144.729 46.7109C144.976 46.871 145.271 47.0125 145.616 47.1357C145.96 47.2588 146.348 47.3665 146.779 47.4588L148.404 47.8281C149.34 48.0312 150.165 48.3021 150.879 48.6406C151.599 48.9792 152.202 49.3823 152.688 49.8501C153.181 50.3179 153.553 50.8565 153.805 51.4659C154.058 52.0753 154.187 52.7585 154.193 53.5156C154.187 54.7098 153.885 55.7346 153.288 56.5902C152.691 57.4458 151.833 58.1013 150.712 58.5568C149.598 59.0123 148.253 59.2401 146.678 59.2401C145.096 59.2401 143.717 59.0031 142.541 58.5291C141.366 58.0552 140.451 57.335 139.799 56.3686C139.147 55.4022 138.811 54.1804 138.793 52.7031H143.169C143.206 53.3125 143.369 53.8203 143.658 54.2266C143.948 54.6328 144.345 54.9406 144.849 55.1499C145.36 55.3591 145.951 55.4638 146.622 55.4638C147.238 55.4638 147.761 55.3807 148.192 55.2145C148.629 55.0483 148.964 54.8175 149.198 54.522C149.432 54.2266 149.552 53.888 149.558 53.5064C149.552 53.1494 149.441 52.8447 149.226 52.5923C149.01 52.3338 148.678 52.1122 148.229 51.9276C147.786 51.7367 147.219 51.5613 146.53 51.4013L144.554 50.9396C142.917 50.5642 141.627 49.9579 140.685 49.1207C139.744 48.2775 139.276 47.1387 139.282 45.7045C139.276 44.535 139.59 43.5102 140.224 42.63C140.858 41.7498 141.735 41.0634 142.855 40.571C143.975 40.0786 145.253 39.8324 146.687 39.8324C148.152 39.8324 149.423 40.0817 150.5 40.5803C151.583 41.0727 152.424 41.7652 153.021 42.6577C153.618 43.5502 153.922 44.5843 153.935 45.7599H149.558ZM164.506 44.8182V48.142H155.56V44.8182H164.506ZM157.434 41.4205H161.949V54.5405C161.949 54.8175 161.992 55.0421 162.078 55.2145C162.17 55.3807 162.303 55.5007 162.475 55.5746C162.647 55.6423 162.854 55.6761 163.094 55.6761C163.266 55.6761 163.448 55.6607 163.638 55.63C163.835 55.593 163.983 55.5623 164.082 55.5376L164.765 58.7969C164.549 58.8584 164.245 58.9354 163.851 59.0277C163.463 59.12 162.998 59.1785 162.457 59.2031C161.398 59.2524 160.49 59.1293 159.733 58.8338C158.982 58.5322 158.406 58.0644 158.006 57.4304C157.612 56.7964 157.422 55.9993 157.434 55.0391V41.4205ZM173.278 59.2678C171.788 59.2678 170.508 58.9631 169.437 58.3537C168.372 57.7382 167.55 56.8826 166.972 55.7869C166.399 54.6851 166.113 53.4079 166.113 51.9553C166.113 50.4964 166.399 49.2192 166.972 48.1236C167.55 47.0218 168.372 46.1662 169.437 45.5568C170.508 44.9413 171.788 44.6335 173.278 44.6335C174.767 44.6335 176.045 44.9413 177.109 45.5568C178.18 46.1662 179.002 47.0218 179.575 48.1236C180.153 49.2192 180.442 50.4964 180.442 51.9553C180.442 53.4079 180.153 54.6851 179.575 55.7869C179.002 56.8826 178.18 57.7382 177.109 58.3537C176.045 58.9631 174.767 59.2678 173.278 59.2678ZM173.305 55.8608C173.847 55.8608 174.306 55.6946 174.681 55.3622C175.057 55.0298 175.343 54.5682 175.54 53.9773C175.743 53.3864 175.844 52.7031 175.844 51.9276C175.844 51.1397 175.743 50.4503 175.54 49.8594C175.343 49.2685 175.057 48.8068 174.681 48.4744C174.306 48.142 173.847 47.9759 173.305 47.9759C172.745 47.9759 172.271 48.142 171.884 48.4744C171.502 48.8068 171.21 49.2685 171.006 49.8594C170.809 50.4503 170.711 51.1397 170.711 51.9276C170.711 52.7031 170.809 53.3864 171.006 53.9773C171.21 54.5682 171.502 55.0298 171.884 55.3622C172.271 55.6946 172.745 55.8608 173.305 55.8608ZM182.755 59V44.8182H187.141V47.4034H187.289C187.547 46.4678 187.969 45.7723 188.554 45.3168C189.138 44.8551 189.819 44.6243 190.594 44.6243C190.803 44.6243 191.019 44.6397 191.24 44.6705C191.462 44.6951 191.668 44.7351 191.859 44.7905V48.7145C191.644 48.6406 191.36 48.5821 191.01 48.5391C190.665 48.496 190.357 48.4744 190.086 48.4744C189.551 48.4744 189.068 48.5945 188.637 48.8345C188.212 49.0684 187.877 49.3977 187.63 49.8224C187.39 50.241 187.27 50.7334 187.27 51.2997V59H182.755ZM199.592 59.2678C198.108 59.2678 196.828 58.9754 195.751 58.3906C194.68 57.7997 193.855 56.9595 193.276 55.87C192.704 54.7744 192.418 53.4725 192.418 51.9645C192.418 50.4995 192.707 49.2192 193.286 48.1236C193.864 47.0218 194.68 46.1662 195.732 45.5568C196.785 44.9413 198.025 44.6335 199.453 44.6335C200.463 44.6335 201.386 44.7905 202.223 45.1044C203.06 45.4183 203.783 45.883 204.393 46.4986C205.002 47.1141 205.476 47.8743 205.815 48.7791C206.153 49.6778 206.322 50.7088 206.322 51.8722V52.9986H193.996V50.3764H202.121C202.115 49.8963 202.001 49.4685 201.78 49.093C201.558 48.7176 201.254 48.4252 200.866 48.2159C200.484 48.0005 200.044 47.8928 199.545 47.8928C199.041 47.8928 198.588 48.0066 198.188 48.2344C197.788 48.456 197.471 48.7607 197.237 49.1484C197.003 49.5301 196.88 49.964 196.868 50.4503V53.1186C196.868 53.6972 196.982 54.205 197.21 54.642C197.437 55.0729 197.76 55.4084 198.179 55.6484C198.598 55.8885 199.096 56.0085 199.675 56.0085C200.075 56.0085 200.438 55.9531 200.764 55.8423C201.09 55.7315 201.371 55.5684 201.604 55.353C201.838 55.1375 202.014 54.8729 202.131 54.5589L206.276 54.679C206.104 55.6084 205.725 56.4179 205.141 57.1072C204.562 57.7905 203.802 58.3229 202.86 58.7045C201.918 59.08 200.829 59.2678 199.592 59.2678Z" fill="white"/>
    <path d="M56.959 50.6518C56.2705 52.8613 55.1815 55.0708 53.701 57.2758C51.424 60.7408 49.1515 62.4688 46.888 62.4688C46.024 62.4688 44.7865 62.1853 43.1755 61.6228C41.6545 61.0558 40.3225 60.7768 39.175 60.7768C38.0995 60.7768 36.844 61.0693 35.413 61.6498C33.982 62.2483 32.8165 62.5498 31.9165 62.5498C29.23 62.5498 26.5705 60.2638 23.938 55.6873C21.3415 51.0748 20.041 46.6288 20.041 42.3538C20.041 38.3263 21.04 35.0233 23.038 32.4403C25.018 29.8978 27.5245 28.6243 30.5665 28.6243C31.84 28.6243 33.4015 28.8898 35.2555 29.4208C37.0915 29.9518 38.311 30.2173 38.914 30.2173C39.7105 30.2173 40.9705 29.9158 42.703 29.3173C44.503 28.7143 46.033 28.4173 47.2885 28.4173C49.39 28.4173 51.271 28.9933 52.9315 30.1408C53.8495 30.7753 54.7675 31.6618 55.69 32.7913C54.295 33.9748 53.287 35.0188 52.6705 35.9188C51.523 37.5793 50.947 39.4063 50.947 41.4043C50.947 43.5958 51.5545 45.5668 52.774 47.3128C53.989 49.0588 55.3885 50.1748 56.959 50.6518ZM46.996 19.5613C46.996 20.6413 46.7395 21.8383 46.2265 23.1658C45.6955 24.4888 44.8765 25.7083 43.7605 26.8243C42.8065 27.7783 41.8525 28.4128 40.8985 28.7323C40.246 28.9258 39.328 29.0788 38.14 29.1823C38.194 26.5498 38.8825 24.2773 40.2055 22.3693C41.515 20.4793 43.72 19.1698 46.8295 18.4453C46.8475 18.4993 46.87 18.5938 46.897 18.7378C46.924 18.8773 46.9465 18.9763 46.9645 19.0303C46.9645 19.1023 46.969 19.1878 46.978 19.2958C46.9915 19.4038 46.996 19.4938 46.996 19.5613Z" fill="white"/>
    <rect x="0.75" y="0.75" width="242.5" height="78.5" rx="15.25" stroke="white" stroke-width="1.5"/>
    </svg>
    