<svg width="515" height="463" viewBox="0 0 515 463" fill="none" xmlns="http://www.w3.org/2000/svg">
    <g filter="url(#filter0_d_347_17)">
    <rect x="20" y="16" width="475" height="423" rx="20" fill="white"/>
    </g>
    <rect x="65" y="240" width="390" height="62" rx="20" fill="#F1F1F1"/>
    <rect x="65" y="159" width="390" height="62" rx="20" fill="#F1F1F1"/>
    <rect x="20" y="125" width="481" height="3" fill="#D9D9D9"/>
    <path d="M90.7933 64.8182H94.8239L100.222 77.9929H100.435L105.832 64.8182H109.863V83H106.702V70.5089H106.534L101.509 82.9467H99.1474L94.1225 70.4822H93.9538V83H90.7933V64.8182ZM119.256 83.2663C117.924 83.2663 116.77 82.9734 115.793 82.3874C114.817 81.8015 114.059 80.9818 113.521 79.9283C112.988 78.8748 112.722 77.6437 112.722 76.2351C112.722 74.8265 112.988 73.5924 113.521 72.533C114.059 71.4736 114.817 70.6509 115.793 70.065C116.77 69.479 117.924 69.1861 119.256 69.1861C120.587 69.1861 121.741 69.479 122.718 70.065C123.695 70.6509 124.449 71.4736 124.982 72.533C125.52 73.5924 125.79 74.8265 125.79 76.2351C125.79 77.6437 125.52 78.8748 124.982 79.9283C124.449 80.9818 123.695 81.8015 122.718 82.3874C121.741 82.9734 120.587 83.2663 119.256 83.2663ZM119.273 80.6918C119.996 80.6918 120.599 80.4935 121.085 80.0969C121.57 79.6945 121.931 79.1559 122.168 78.4812C122.41 77.8065 122.532 77.0548 122.532 76.2262C122.532 75.3917 122.41 74.6371 122.168 73.9624C121.931 73.2817 121.57 72.7402 121.085 72.3377C120.599 71.9353 119.996 71.734 119.273 71.734C118.534 71.734 117.918 71.9353 117.427 72.3377C116.942 72.7402 116.578 73.2817 116.335 73.9624C116.098 74.6371 115.98 75.3917 115.98 76.2262C115.98 77.0548 116.098 77.8065 116.335 78.4812C116.578 79.1559 116.942 79.6945 117.427 80.0969C117.918 80.4935 118.534 80.6918 119.273 80.6918ZM131.731 75.0099V83H128.517V69.3636H131.589V71.6808H131.749C132.063 70.9173 132.563 70.3106 133.249 69.8608C133.942 69.411 134.797 69.1861 135.815 69.1861C136.756 69.1861 137.576 69.3873 138.274 69.7898C138.979 70.1922 139.523 70.7752 139.908 71.5387C140.298 72.3022 140.491 73.2285 140.485 74.3175V83H137.271V74.8146C137.271 73.9032 137.034 73.19 136.561 72.6751C136.093 72.1602 135.445 71.9027 134.617 71.9027C134.054 71.9027 133.554 72.027 133.116 72.2756C132.684 72.5182 132.344 72.8704 132.095 73.332C131.853 73.7937 131.731 74.353 131.731 75.0099ZM150.561 69.3636V71.8494H142.722V69.3636H150.561ZM144.657 66.0966H147.871V78.8984C147.871 79.3305 147.936 79.6619 148.066 79.8928C148.203 80.1177 148.38 80.2715 148.599 80.3544C148.818 80.4373 149.061 80.4787 149.327 80.4787C149.528 80.4787 149.712 80.4639 149.878 80.4343C150.049 80.4047 150.179 80.3781 150.268 80.3544L150.81 82.8668C150.638 82.926 150.392 82.9911 150.073 83.0621C149.759 83.1332 149.374 83.1746 148.919 83.1864C148.114 83.2101 147.389 83.0888 146.744 82.8224C146.099 82.5502 145.587 82.13 145.208 81.5618C144.835 80.9936 144.651 80.2834 144.657 79.4311V66.0966ZM156.756 75.0099V83H153.542V64.8182H156.685V71.6808H156.844C157.164 70.9113 157.658 70.3047 158.327 69.8608C159.002 69.411 159.86 69.1861 160.902 69.1861C161.849 69.1861 162.674 69.3844 163.379 69.7809C164.083 70.1774 164.627 70.7575 165.012 71.521C165.403 72.2844 165.598 73.2166 165.598 74.3175V83H162.384V74.8146C162.384 73.8973 162.147 73.1841 161.674 72.6751C161.206 72.1602 160.549 71.9027 159.703 71.9027C159.135 71.9027 158.626 72.027 158.176 72.2756C157.732 72.5182 157.383 72.8704 157.129 73.332C156.88 73.7937 156.756 74.353 156.756 75.0099ZM172.088 64.8182V83H168.874V64.8182H172.088ZM177.39 88.1136C176.952 88.1136 176.547 88.0781 176.174 88.0071C175.807 87.942 175.514 87.8651 175.295 87.7763L176.041 85.2727C176.508 85.4089 176.925 85.474 177.292 85.468C177.659 85.4621 177.982 85.3467 178.26 85.1218C178.544 84.9028 178.784 84.5359 178.979 84.021L179.254 83.2841L174.309 69.3636H177.718L180.861 79.6619H181.003L184.155 69.3636H187.573L182.113 84.6513C181.859 85.3733 181.521 85.9918 181.101 86.5067C180.681 87.0276 180.166 87.4241 179.556 87.6964C178.953 87.9746 178.23 88.1136 177.39 88.1136ZM196.14 83V64.8182H202.958C204.355 64.8182 205.527 65.0608 206.474 65.5462C207.427 66.0315 208.146 66.7121 208.631 67.5881C209.122 68.4581 209.368 69.4731 209.368 70.6332C209.368 71.7991 209.119 72.8112 208.622 73.6694C208.131 74.5217 207.406 75.1816 206.447 75.6491C205.488 76.1108 204.311 76.3416 202.914 76.3416H198.058V73.6072H202.47C203.287 73.6072 203.955 73.4948 204.476 73.2699C204.997 73.0391 205.382 72.7047 205.63 72.2667C205.885 71.8228 206.012 71.2783 206.012 70.6332C206.012 69.988 205.885 69.4376 205.63 68.9819C205.376 68.5202 204.988 68.171 204.467 67.9343C203.947 67.6916 203.275 67.5703 202.452 67.5703H199.434V83H196.14ZM205.533 74.7614L210.034 83H206.358L201.937 74.7614H205.533ZM218.099 83.2663C216.732 83.2663 215.551 82.9822 214.557 82.4141C213.569 81.84 212.808 81.0291 212.275 79.9815C211.743 78.928 211.476 77.6881 211.476 76.2617C211.476 74.859 211.743 73.628 212.275 72.5685C212.814 71.5032 213.566 70.6746 214.53 70.0827C215.495 69.485 216.629 69.1861 217.931 69.1861C218.771 69.1861 219.564 69.3222 220.31 69.5945C221.062 69.8608 221.724 70.2751 222.299 70.8374C222.879 71.3996 223.334 72.1158 223.666 72.9858C223.997 73.8499 224.163 74.8797 224.163 76.0753V77.0607H212.986V74.8945H221.082C221.076 74.279 220.943 73.7315 220.683 73.2521C220.422 72.7668 220.058 72.3851 219.591 72.1069C219.129 71.8287 218.591 71.6896 217.975 71.6896C217.318 71.6896 216.741 71.8494 216.244 72.169C215.747 72.4827 215.359 72.897 215.081 73.4119C214.809 73.9209 214.67 74.4802 214.664 75.0898V76.9808C214.664 77.7739 214.809 78.4545 215.099 79.0227C215.389 79.585 215.794 80.017 216.315 80.3189C216.836 80.6148 217.445 80.7628 218.144 80.7628C218.611 80.7628 219.034 80.6977 219.413 80.5675C219.792 80.4313 220.121 80.2331 220.399 79.9727C220.677 79.7122 220.887 79.3897 221.029 79.005L224.03 79.3423C223.84 80.1354 223.479 80.8279 222.947 81.4197C222.42 82.0057 221.745 82.4614 220.922 82.7869C220.1 83.1065 219.159 83.2663 218.099 83.2663ZM233.691 69.3636V71.8494H225.852V69.3636H233.691ZM227.787 66.0966H231.001V78.8984C231.001 79.3305 231.066 79.6619 231.196 79.8928C231.333 80.1177 231.51 80.2715 231.729 80.3544C231.948 80.4373 232.191 80.4787 232.457 80.4787C232.658 80.4787 232.842 80.4639 233.007 80.4343C233.179 80.4047 233.309 80.3781 233.398 80.3544L233.94 82.8668C233.768 82.926 233.522 82.9911 233.203 83.0621C232.889 83.1332 232.504 83.1746 232.049 83.1864C231.244 83.2101 230.519 83.0888 229.874 82.8224C229.228 82.5502 228.717 82.13 228.338 81.5618C227.965 80.9936 227.781 80.2834 227.787 79.4311V66.0966ZM236.379 83V69.3636H239.593V83H236.379ZM237.995 67.4283C237.486 67.4283 237.048 67.2596 236.681 66.9222C236.314 66.579 236.13 66.1676 236.13 65.6882C236.13 65.2029 236.314 64.7915 236.681 64.4542C237.048 64.1109 237.486 63.9393 237.995 63.9393C238.509 63.9393 238.947 64.1109 239.309 64.4542C239.675 64.7915 239.859 65.2029 239.859 65.6882C239.859 66.1676 239.675 66.579 239.309 66.9222C238.947 67.2596 238.509 67.4283 237.995 67.4283ZM242.897 83V69.3636H246.013V71.6364H246.156C246.404 70.8492 246.83 70.2425 247.434 69.8164C248.044 69.3844 248.739 69.1683 249.52 69.1683C249.698 69.1683 249.896 69.1772 250.115 69.195C250.34 69.2068 250.526 69.2275 250.674 69.2571V72.2134C250.538 72.1661 250.322 72.1246 250.026 72.0891C249.736 72.0477 249.455 72.027 249.183 72.027C248.597 72.027 248.07 72.1542 247.603 72.4087C247.141 72.6573 246.777 73.0036 246.511 73.4474C246.244 73.8913 246.111 74.4033 246.111 74.9833V83H242.897ZM258.285 83.2663C256.918 83.2663 255.737 82.9822 254.743 82.4141C253.754 81.84 252.994 81.0291 252.461 79.9815C251.928 78.928 251.662 77.6881 251.662 76.2617C251.662 74.859 251.928 73.628 252.461 72.5685C253 71.5032 253.751 70.6746 254.716 70.0827C255.681 69.485 256.814 69.1861 258.116 69.1861C258.957 69.1861 259.75 69.3222 260.495 69.5945C261.247 69.8608 261.91 70.2751 262.484 70.8374C263.064 71.3996 263.52 72.1158 263.851 72.9858C264.183 73.8499 264.348 74.8797 264.348 76.0753V77.0607H253.171V74.8945H261.268C261.262 74.279 261.129 73.7315 260.868 73.2521C260.608 72.7668 260.244 72.3851 259.776 72.1069C259.315 71.8287 258.776 71.6896 258.161 71.6896C257.504 71.6896 256.927 71.8494 256.429 72.169C255.932 72.4827 255.545 72.897 255.266 73.4119C254.994 73.9209 254.855 74.4802 254.849 75.0898V76.9808C254.849 77.7739 254.994 78.4545 255.284 79.0227C255.574 79.585 255.98 80.017 256.5 80.3189C257.021 80.6148 257.631 80.7628 258.329 80.7628C258.797 80.7628 259.22 80.6977 259.599 80.5675C259.978 80.4313 260.306 80.2331 260.584 79.9727C260.862 79.7122 261.073 79.3897 261.215 79.005L264.215 79.3423C264.026 80.1354 263.665 80.8279 263.132 81.4197C262.605 82.0057 261.931 82.4614 261.108 82.7869C260.285 83.1065 259.344 83.2663 258.285 83.2663ZM267.067 83V69.3636H270.139V71.6808H270.299C270.583 70.8995 271.053 70.2899 271.71 69.8519C272.367 69.408 273.152 69.1861 274.063 69.1861C274.986 69.1861 275.765 69.411 276.398 69.8608C277.037 70.3047 277.487 70.9113 277.747 71.6808H277.889C278.191 70.9232 278.7 70.3195 279.416 69.8697C280.138 69.4139 280.994 69.1861 281.982 69.1861C283.237 69.1861 284.261 69.5826 285.054 70.3757C285.847 71.1688 286.243 72.3259 286.243 73.8469V83H283.021V74.3441C283.021 73.4978 282.796 72.8793 282.346 72.4886C281.896 72.0921 281.346 71.8938 280.695 71.8938C279.919 71.8938 279.313 72.1365 278.875 72.6218C278.443 73.1012 278.227 73.7256 278.227 74.495V83H275.075V74.2109C275.075 73.5066 274.862 72.9444 274.436 72.5241C274.016 72.1039 273.465 71.8938 272.785 71.8938C272.323 71.8938 271.903 72.0122 271.524 72.2489C271.145 72.4798 270.843 72.8082 270.618 73.2344C270.394 73.6546 270.281 74.1458 270.281 74.7081V83H267.067ZM295.541 83.2663C294.174 83.2663 292.993 82.9822 291.998 82.4141C291.01 81.84 290.25 81.0291 289.717 79.9815C289.184 78.928 288.918 77.6881 288.918 76.2617C288.918 74.859 289.184 73.628 289.717 72.5685C290.255 71.5032 291.007 70.6746 291.972 70.0827C292.937 69.485 294.07 69.1861 295.372 69.1861C296.213 69.1861 297.006 69.3222 297.751 69.5945C298.503 69.8608 299.166 70.2751 299.74 70.8374C300.32 71.3996 300.776 72.1158 301.107 72.9858C301.439 73.8499 301.604 74.8797 301.604 76.0753V77.0607H290.427V74.8945H298.524C298.518 74.279 298.385 73.7315 298.124 73.2521C297.864 72.7668 297.5 72.3851 297.032 72.1069C296.571 71.8287 296.032 71.6896 295.416 71.6896C294.759 71.6896 294.182 71.8494 293.685 72.169C293.188 72.4827 292.8 72.897 292.522 73.4119C292.25 73.9209 292.111 74.4802 292.105 75.0898V76.9808C292.105 77.7739 292.25 78.4545 292.54 79.0227C292.83 79.585 293.235 80.017 293.756 80.3189C294.277 80.6148 294.887 80.7628 295.585 80.7628C296.053 80.7628 296.476 80.6977 296.855 80.5675C297.233 80.4313 297.562 80.2331 297.84 79.9727C298.118 79.7122 298.328 79.3897 298.47 79.005L301.471 79.3423C301.282 80.1354 300.921 80.8279 300.388 81.4197C299.861 82.0057 299.187 82.4614 298.364 82.7869C297.541 83.1065 296.6 83.2663 295.541 83.2663ZM307.537 75.0099V83H304.323V69.3636H307.395V71.6808H307.555C307.868 70.9173 308.368 70.3106 309.055 69.8608C309.748 69.411 310.603 69.1861 311.621 69.1861C312.562 69.1861 313.382 69.3873 314.08 69.7898C314.784 70.1922 315.329 70.7752 315.713 71.5387C316.104 72.3022 316.296 73.2285 316.29 74.3175V83H313.077V74.8146C313.077 73.9032 312.84 73.19 312.366 72.6751C311.899 72.1602 311.251 71.9027 310.422 71.9027C309.86 71.9027 309.36 72.027 308.922 72.2756C308.49 72.5182 308.15 72.8704 307.901 73.332C307.658 73.7937 307.537 74.353 307.537 75.0099ZM326.367 69.3636V71.8494H318.528V69.3636H326.367ZM320.463 66.0966H323.677V78.8984C323.677 79.3305 323.742 79.6619 323.872 79.8928C324.008 80.1177 324.186 80.2715 324.405 80.3544C324.624 80.4373 324.866 80.4787 325.133 80.4787C325.334 80.4787 325.518 80.4639 325.683 80.4343C325.855 80.4047 325.985 80.3781 326.074 80.3544L326.615 82.8668C326.444 82.926 326.198 82.9911 325.879 83.0621C325.565 83.1332 325.18 83.1746 324.724 83.1864C323.92 83.2101 323.194 83.0888 322.549 82.8224C321.904 82.5502 321.392 82.13 321.013 81.5618C320.641 80.9936 320.457 80.2834 320.463 79.4311V66.0966ZM338.691 64.8182V83H335.398V64.8182H338.691ZM345.33 75.0099V83H342.116V69.3636H345.188V71.6808H345.348C345.661 70.9173 346.161 70.3106 346.848 69.8608C347.54 69.411 348.396 69.1861 349.414 69.1861C350.355 69.1861 351.174 69.3873 351.873 69.7898C352.577 70.1922 353.122 70.7752 353.506 71.5387C353.897 72.3022 354.089 73.2285 354.083 74.3175V83H350.87V74.8146C350.87 73.9032 350.633 73.19 350.159 72.6751C349.692 72.1602 349.044 71.9027 348.215 71.9027C347.653 71.9027 347.153 72.027 346.715 72.2756C346.283 72.5182 345.942 72.8704 345.694 73.332C345.451 73.7937 345.33 74.353 345.33 75.0099ZM363.299 83.2663C361.937 83.2663 360.768 82.9674 359.792 82.3697C358.821 81.7719 358.073 80.9463 357.546 79.8928C357.025 78.8333 356.765 77.6141 356.765 76.2351C356.765 74.8501 357.031 73.628 357.564 72.5685C358.096 71.5032 358.848 70.6746 359.819 70.0827C360.795 69.485 361.949 69.1861 363.281 69.1861C364.388 69.1861 365.367 69.3903 366.219 69.7987C367.078 70.2011 367.761 70.7723 368.27 71.5121C368.779 72.246 369.069 73.1042 369.14 74.0866H366.069C365.944 73.4297 365.648 72.8822 365.181 72.4442C364.719 72.0004 364.101 71.7784 363.325 71.7784C362.668 71.7784 362.091 71.956 361.594 72.3111C361.097 72.6603 360.709 73.1634 360.431 73.8203C360.159 74.4773 360.023 75.2644 360.023 76.1818C360.023 77.111 360.159 77.91 360.431 78.5788C360.703 79.2417 361.085 79.7537 361.576 80.1147C362.074 80.4698 362.656 80.6474 363.325 80.6474C363.799 80.6474 364.222 80.5586 364.595 80.381C364.974 80.1976 365.29 79.9342 365.545 79.5909C365.799 79.2476 365.974 78.8304 366.069 78.3391H369.14C369.063 79.3039 368.779 80.1591 368.288 80.9048C367.797 81.6446 367.128 82.2247 366.282 82.6449C365.435 83.0592 364.441 83.2663 363.299 83.2663ZM377.727 83.2663C376.396 83.2663 375.242 82.9734 374.265 82.3874C373.288 81.8015 372.531 80.9818 371.992 79.9283C371.46 78.8748 371.193 77.6437 371.193 76.2351C371.193 74.8265 371.46 73.5924 371.992 72.533C372.531 71.4736 373.288 70.6509 374.265 70.065C375.242 69.479 376.396 69.1861 377.727 69.1861C379.059 69.1861 380.213 69.479 381.19 70.065C382.166 70.6509 382.921 71.4736 383.454 72.533C383.992 73.5924 384.261 74.8265 384.261 76.2351C384.261 77.6437 383.992 78.8748 383.454 79.9283C382.921 80.9818 382.166 81.8015 381.19 82.3874C380.213 82.9734 379.059 83.2663 377.727 83.2663ZM377.745 80.6918C378.467 80.6918 379.071 80.4935 379.556 80.0969C380.042 79.6945 380.403 79.1559 380.639 78.4812C380.882 77.8065 381.003 77.0548 381.003 76.2262C381.003 75.3917 380.882 74.6371 380.639 73.9624C380.403 73.2817 380.042 72.7402 379.556 72.3377C379.071 71.9353 378.467 71.734 377.745 71.734C377.005 71.734 376.39 71.9353 375.899 72.3377C375.413 72.7402 375.049 73.2817 374.807 73.9624C374.57 74.6371 374.451 75.3917 374.451 76.2262C374.451 77.0548 374.57 77.8065 374.807 78.4812C375.049 79.1559 375.413 79.6945 375.899 80.0969C376.39 80.4935 377.005 80.6918 377.745 80.6918ZM386.989 83V69.3636H390.061V71.6808H390.221C390.505 70.8995 390.975 70.2899 391.632 69.8519C392.289 69.408 393.073 69.1861 393.985 69.1861C394.908 69.1861 395.686 69.411 396.32 69.8608C396.959 70.3047 397.409 70.9113 397.669 71.6808H397.811C398.113 70.9232 398.622 70.3195 399.338 69.8697C400.06 69.4139 400.916 69.1861 401.904 69.1861C403.159 69.1861 404.183 69.5826 404.976 70.3757C405.769 71.1688 406.165 72.3259 406.165 73.8469V83H402.943V74.3441C402.943 73.4978 402.718 72.8793 402.268 72.4886C401.818 72.0921 401.268 71.8938 400.617 71.8938C399.841 71.8938 399.235 72.1365 398.797 72.6218C398.365 73.1012 398.149 73.7256 398.149 74.495V83H394.997V74.2109C394.997 73.5066 394.784 72.9444 394.358 72.5241C393.938 72.1039 393.387 71.8938 392.706 71.8938C392.245 71.8938 391.825 72.0122 391.446 72.2489C391.067 72.4798 390.765 72.8082 390.54 73.2344C390.315 73.6546 390.203 74.1458 390.203 74.7081V83H386.989ZM415.463 83.2663C414.095 83.2663 412.915 82.9822 411.92 82.4141C410.932 81.84 410.171 81.0291 409.639 79.9815C409.106 78.928 408.84 77.6881 408.84 76.2617C408.84 74.859 409.106 73.628 409.639 72.5685C410.177 71.5032 410.929 70.6746 411.894 70.0827C412.858 69.485 413.992 69.1861 415.294 69.1861C416.134 69.1861 416.927 69.3222 417.673 69.5945C418.425 69.8608 419.088 70.2751 419.662 70.8374C420.242 71.3996 420.698 72.1158 421.029 72.9858C421.36 73.8499 421.526 74.8797 421.526 76.0753V77.0607H410.349V74.8945H418.446C418.44 74.279 418.306 73.7315 418.046 73.2521C417.786 72.7668 417.422 72.3851 416.954 72.1069C416.492 71.8287 415.954 71.6896 415.338 71.6896C414.681 71.6896 414.104 71.8494 413.607 72.169C413.11 72.4827 412.722 72.897 412.444 73.4119C412.172 73.9209 412.033 74.4802 412.027 75.0898V76.9808C412.027 77.7739 412.172 78.4545 412.462 79.0227C412.752 79.585 413.157 80.017 413.678 80.3189C414.199 80.6148 414.809 80.7628 415.507 80.7628C415.975 80.7628 416.398 80.6977 416.777 80.5675C417.155 80.4313 417.484 80.2331 417.762 79.9727C418.04 79.7122 418.25 79.3897 418.392 79.005L421.393 79.3423C421.204 80.1354 420.843 80.8279 420.31 81.4197C419.783 82.0057 419.108 82.4614 418.286 82.7869C417.463 83.1065 416.522 83.2663 415.463 83.2663Z" fill="#222A26"/>
    <path d="M92.3026 197H89.4901L94.6108 182.455H97.8636L102.991 197H100.179L96.294 185.438H96.1804L92.3026 197ZM92.3949 191.297H100.065V193.413H92.3949V191.297ZM109.206 201.318C108.283 201.318 107.49 201.193 106.827 200.942C106.164 200.696 105.631 200.364 105.229 199.947C104.826 199.531 104.547 199.069 104.391 198.562L106.706 198.001C106.81 198.214 106.962 198.425 107.161 198.634C107.359 198.847 107.627 199.022 107.963 199.159C108.304 199.301 108.732 199.372 109.249 199.372C109.978 199.372 110.581 199.195 111.06 198.839C111.538 198.489 111.777 197.911 111.777 197.107V195.04H111.649C111.517 195.305 111.322 195.577 111.067 195.857C110.816 196.136 110.482 196.37 110.065 196.56C109.653 196.749 109.135 196.844 108.51 196.844C107.672 196.844 106.912 196.647 106.23 196.254C105.553 195.857 105.013 195.265 104.611 194.479C104.213 193.688 104.014 192.698 104.014 191.51C104.014 190.312 104.213 189.301 104.611 188.477C105.013 187.649 105.555 187.021 106.237 186.595C106.919 186.164 107.679 185.949 108.517 185.949C109.156 185.949 109.682 186.058 110.094 186.276C110.51 186.489 110.842 186.747 111.088 187.05C111.334 187.348 111.521 187.63 111.649 187.895H111.791V186.091H114.327V197.178C114.327 198.11 114.104 198.882 113.659 199.493C113.214 200.104 112.606 200.561 111.834 200.864C111.062 201.167 110.186 201.318 109.206 201.318ZM109.227 194.827C109.772 194.827 110.236 194.694 110.619 194.429C111.003 194.164 111.294 193.783 111.493 193.286C111.692 192.788 111.791 192.192 111.791 191.496C111.791 190.809 111.692 190.208 111.493 189.692C111.299 189.176 111.01 188.776 110.626 188.491C110.248 188.203 109.781 188.058 109.227 188.058C108.654 188.058 108.176 188.207 107.793 188.506C107.409 188.804 107.12 189.214 106.926 189.734C106.732 190.25 106.635 190.838 106.635 191.496C106.635 192.163 106.732 192.748 106.926 193.25C107.125 193.747 107.416 194.135 107.8 194.415C108.188 194.689 108.664 194.827 109.227 194.827ZM121.791 197.213C120.697 197.213 119.753 196.986 118.957 196.531C118.167 196.072 117.558 195.423 117.132 194.585C116.706 193.742 116.493 192.75 116.493 191.609C116.493 190.487 116.706 189.502 117.132 188.655C117.563 187.803 118.164 187.14 118.936 186.666C119.708 186.188 120.615 185.949 121.656 185.949C122.329 185.949 122.963 186.058 123.56 186.276C124.161 186.489 124.691 186.82 125.151 187.27C125.615 187.72 125.979 188.293 126.244 188.989C126.509 189.68 126.642 190.504 126.642 191.46V192.249H117.7V190.516H124.178C124.173 190.023 124.066 189.585 123.858 189.202C123.65 188.813 123.358 188.508 122.984 188.286C122.615 188.063 122.184 187.952 121.692 187.952C121.166 187.952 120.705 188.08 120.307 188.335C119.909 188.586 119.599 188.918 119.376 189.33C119.159 189.737 119.047 190.184 119.043 190.672V192.185C119.043 192.819 119.159 193.364 119.391 193.818C119.623 194.268 119.947 194.614 120.364 194.855C120.78 195.092 121.268 195.21 121.827 195.21C122.201 195.21 122.539 195.158 122.842 195.054C123.145 194.945 123.408 194.786 123.631 194.578C123.853 194.37 124.021 194.112 124.135 193.804L126.536 194.074C126.384 194.708 126.095 195.262 125.669 195.736C125.248 196.205 124.708 196.569 124.05 196.83C123.392 197.085 122.639 197.213 121.791 197.213Z" fill="#222A26"/>
    <path d="M90.4347 263.455H93.6591L97.9773 273.994H98.1477L102.466 263.455H105.69V278H103.162V268.007H103.027L99.0071 277.957H97.1179L93.098 267.986H92.9631V278H90.4347V263.455ZM113.205 278.213C112.139 278.213 111.216 277.979 110.435 277.51C109.653 277.041 109.047 276.385 108.616 275.543C108.19 274.7 107.977 273.715 107.977 272.588C107.977 271.461 108.19 270.474 108.616 269.626C109.047 268.779 109.653 268.121 110.435 267.652C111.216 267.183 112.139 266.949 113.205 266.949C114.27 266.949 115.193 267.183 115.974 267.652C116.756 268.121 117.359 268.779 117.786 269.626C118.216 270.474 118.432 271.461 118.432 272.588C118.432 273.715 118.216 274.7 117.786 275.543C117.359 276.385 116.756 277.041 115.974 277.51C115.193 277.979 114.27 278.213 113.205 278.213ZM113.219 276.153C113.796 276.153 114.279 275.995 114.668 275.678C115.056 275.356 115.345 274.925 115.534 274.385C115.728 273.845 115.825 273.244 115.825 272.581C115.825 271.913 115.728 271.31 115.534 270.77C115.345 270.225 115.056 269.792 114.668 269.47C114.279 269.148 113.796 268.987 113.219 268.987C112.627 268.987 112.134 269.148 111.741 269.47C111.353 269.792 111.062 270.225 110.868 270.77C110.679 271.31 110.584 271.913 110.584 272.581C110.584 273.244 110.679 273.845 110.868 274.385C111.062 274.925 111.353 275.356 111.741 275.678C112.134 275.995 112.627 276.153 113.219 276.153ZM123.185 271.608V278H120.614V267.091H123.071V268.945H123.199C123.45 268.334 123.85 267.848 124.4 267.489C124.953 267.129 125.638 266.949 126.452 266.949C127.205 266.949 127.861 267.11 128.419 267.432C128.983 267.754 129.418 268.22 129.726 268.831C130.039 269.442 130.193 270.183 130.188 271.054V278H127.617V271.452C127.617 270.723 127.427 270.152 127.049 269.74C126.675 269.328 126.156 269.122 125.493 269.122C125.043 269.122 124.643 269.222 124.293 269.42C123.947 269.615 123.675 269.896 123.476 270.266C123.282 270.635 123.185 271.082 123.185 271.608ZM138.249 267.091V269.08H131.978V267.091H138.249ZM133.526 264.477H136.097V274.719C136.097 275.064 136.149 275.33 136.253 275.514C136.362 275.694 136.504 275.817 136.679 275.884C136.855 275.95 137.049 275.983 137.262 275.983C137.423 275.983 137.569 275.971 137.702 275.947C137.839 275.924 137.944 275.902 138.015 275.884L138.448 277.893C138.31 277.941 138.114 277.993 137.858 278.05C137.607 278.107 137.3 278.14 136.935 278.149C136.291 278.168 135.711 278.071 135.195 277.858C134.679 277.64 134.269 277.304 133.966 276.849C133.668 276.395 133.521 275.827 133.526 275.145V264.477ZM143.205 271.608V278H140.634V263.455H143.148V268.945H143.276C143.531 268.329 143.927 267.844 144.462 267.489C145.001 267.129 145.688 266.949 146.521 266.949C147.279 266.949 147.939 267.107 148.503 267.425C149.066 267.742 149.502 268.206 149.81 268.817C150.122 269.428 150.278 270.173 150.278 271.054V278H147.707V271.452C147.707 270.718 147.518 270.147 147.139 269.74C146.765 269.328 146.24 269.122 145.562 269.122C145.108 269.122 144.701 269.222 144.341 269.42C143.986 269.615 143.706 269.896 143.503 270.266C143.304 270.635 143.205 271.082 143.205 271.608ZM155.47 263.455V278H152.899V263.455H155.47ZM159.712 282.091C159.362 282.091 159.037 282.063 158.739 282.006C158.445 281.954 158.211 281.892 158.036 281.821L158.632 279.818C159.007 279.927 159.34 279.979 159.634 279.974C159.927 279.97 160.185 279.877 160.408 279.697C160.635 279.522 160.827 279.229 160.983 278.817L161.203 278.227L157.248 267.091H159.975L162.489 275.33H162.603L165.124 267.091H167.858L163.49 279.321C163.287 279.899 163.017 280.393 162.681 280.805C162.345 281.222 161.933 281.539 161.445 281.757C160.962 281.98 160.384 282.091 159.712 282.091ZM179.357 278.213C178.268 278.213 177.333 277.974 176.551 277.496C175.775 277.018 175.176 276.357 174.755 275.514C174.338 274.667 174.13 273.691 174.13 272.588C174.13 271.48 174.343 270.502 174.769 269.655C175.195 268.803 175.796 268.14 176.573 267.666C177.354 267.188 178.277 266.949 179.343 266.949C180.228 266.949 181.012 267.112 181.694 267.439C182.38 267.761 182.927 268.218 183.334 268.81C183.741 269.397 183.973 270.083 184.03 270.869H181.573C181.473 270.344 181.237 269.906 180.863 269.555C180.493 269.2 179.998 269.023 179.378 269.023C178.853 269.023 178.391 269.165 177.993 269.449C177.596 269.728 177.285 270.131 177.063 270.656C176.845 271.182 176.736 271.812 176.736 272.545C176.736 273.289 176.845 273.928 177.063 274.463C177.281 274.993 177.586 275.403 177.979 275.692C178.377 275.976 178.843 276.118 179.378 276.118C179.757 276.118 180.096 276.047 180.394 275.905C180.697 275.758 180.95 275.547 181.154 275.273C181.357 274.998 181.497 274.664 181.573 274.271H184.03C183.969 275.043 183.741 275.727 183.348 276.324C182.955 276.916 182.42 277.38 181.743 277.716C181.066 278.047 180.271 278.213 179.357 278.213ZM190.9 278.213C189.835 278.213 188.911 277.979 188.13 277.51C187.349 277.041 186.743 276.385 186.312 275.543C185.886 274.7 185.673 273.715 185.673 272.588C185.673 271.461 185.886 270.474 186.312 269.626C186.743 268.779 187.349 268.121 188.13 267.652C188.911 267.183 189.835 266.949 190.9 266.949C191.965 266.949 192.888 267.183 193.67 267.652C194.451 268.121 195.055 268.779 195.481 269.626C195.912 270.474 196.127 271.461 196.127 272.588C196.127 273.715 195.912 274.7 195.481 275.543C195.055 276.385 194.451 277.041 193.67 277.51C192.888 277.979 191.965 278.213 190.9 278.213ZM190.914 276.153C191.492 276.153 191.975 275.995 192.363 275.678C192.751 275.356 193.04 274.925 193.229 274.385C193.424 273.845 193.521 273.244 193.521 272.581C193.521 271.913 193.424 271.31 193.229 270.77C193.04 270.225 192.751 269.792 192.363 269.47C191.975 269.148 191.492 268.987 190.914 268.987C190.322 268.987 189.83 269.148 189.437 269.47C189.049 269.792 188.757 270.225 188.563 270.77C188.374 271.31 188.279 271.913 188.279 272.581C188.279 273.244 188.374 273.845 188.563 274.385C188.757 274.925 189.049 275.356 189.437 275.678C189.83 275.995 190.322 276.153 190.914 276.153ZM200.88 271.608V278H198.309V267.091H200.767V268.945H200.895C201.145 268.334 201.546 267.848 202.095 267.489C202.649 267.129 203.333 266.949 204.147 266.949C204.9 266.949 205.556 267.11 206.115 267.432C206.678 267.754 207.114 268.22 207.422 268.831C207.734 269.442 207.888 270.183 207.883 271.054V278H205.312V271.452C205.312 270.723 205.123 270.152 204.744 269.74C204.37 269.328 203.851 269.122 203.189 269.122C202.739 269.122 202.339 269.222 201.988 269.42C201.643 269.615 201.37 269.896 201.172 270.266C200.977 270.635 200.88 271.082 200.88 271.608ZM215.944 267.091V269.08H209.673V267.091H215.944ZM211.221 264.477H213.792V274.719C213.792 275.064 213.844 275.33 213.949 275.514C214.057 275.694 214.199 275.817 214.375 275.884C214.55 275.95 214.744 275.983 214.957 275.983C215.118 275.983 215.265 275.971 215.397 275.947C215.535 275.924 215.639 275.902 215.71 275.884L216.143 277.893C216.006 277.941 215.809 277.993 215.554 278.05C215.303 278.107 214.995 278.14 214.63 278.149C213.986 278.168 213.406 278.071 212.89 277.858C212.374 277.64 211.965 277.304 211.662 276.849C211.363 276.395 211.217 275.827 211.221 275.145V264.477ZM218.094 278V267.091H220.587V268.909H220.701C220.9 268.279 221.241 267.794 221.724 267.453C222.211 267.107 222.768 266.935 223.393 266.935C223.535 266.935 223.693 266.942 223.869 266.956C224.049 266.965 224.198 266.982 224.316 267.006V269.371C224.207 269.333 224.034 269.3 223.798 269.271C223.566 269.238 223.341 269.222 223.123 269.222C222.654 269.222 222.233 269.323 221.859 269.527C221.489 269.726 221.198 270.003 220.985 270.358C220.772 270.713 220.665 271.123 220.665 271.587V278H218.094ZM226.024 278V267.091H228.595V278H226.024ZM227.317 265.543C226.91 265.543 226.559 265.408 226.266 265.138C225.972 264.863 225.825 264.534 225.825 264.151C225.825 263.762 225.972 263.433 226.266 263.163C226.559 262.889 226.91 262.751 227.317 262.751C227.729 262.751 228.079 262.889 228.368 263.163C228.661 263.433 228.808 263.762 228.808 264.151C228.808 264.534 228.661 264.863 228.368 265.138C228.079 265.408 227.729 265.543 227.317 265.543ZM231.353 278V263.455H233.924V268.895H234.03C234.163 268.63 234.35 268.348 234.591 268.05C234.833 267.747 235.159 267.489 235.571 267.276C235.983 267.058 236.509 266.949 237.148 266.949C237.991 266.949 238.751 267.164 239.428 267.595C240.11 268.021 240.65 268.653 241.047 269.491C241.45 270.325 241.651 271.348 241.651 272.56C241.651 273.758 241.454 274.776 241.061 275.614C240.668 276.452 240.133 277.091 239.456 277.531C238.779 277.972 238.012 278.192 237.155 278.192C236.53 278.192 236.012 278.088 235.6 277.879C235.188 277.671 234.856 277.42 234.605 277.126C234.359 276.828 234.167 276.546 234.03 276.281H233.881V278H231.353ZM233.874 272.545C233.874 273.251 233.973 273.869 234.172 274.399C234.376 274.929 234.667 275.344 235.046 275.642C235.429 275.936 235.893 276.082 236.438 276.082C237.006 276.082 237.482 275.931 237.865 275.628C238.249 275.32 238.538 274.901 238.732 274.371C238.931 273.836 239.03 273.227 239.03 272.545C239.03 271.868 238.933 271.267 238.739 270.741C238.545 270.216 238.256 269.804 237.873 269.506C237.489 269.207 237.011 269.058 236.438 269.058C235.889 269.058 235.422 269.203 235.039 269.491C234.655 269.78 234.364 270.185 234.165 270.706C233.971 271.227 233.874 271.84 233.874 272.545ZM250.79 273.412V267.091H253.361V278H250.868V276.061H250.754C250.508 276.672 250.103 277.171 249.54 277.56C248.981 277.948 248.292 278.142 247.473 278.142C246.758 278.142 246.126 277.983 245.577 277.666C245.032 277.344 244.606 276.878 244.298 276.267C243.991 275.652 243.837 274.908 243.837 274.037V267.091H246.408V273.639C246.408 274.33 246.597 274.88 246.976 275.287C247.355 275.694 247.852 275.898 248.467 275.898C248.846 275.898 249.213 275.805 249.568 275.621C249.923 275.436 250.214 275.161 250.442 274.797C250.674 274.428 250.79 273.966 250.79 273.412ZM261.452 267.091V269.08H255.181V267.091H261.452ZM256.729 264.477H259.3V274.719C259.3 275.064 259.352 275.33 259.456 275.514C259.565 275.694 259.707 275.817 259.882 275.884C260.058 275.95 260.252 275.983 260.465 275.983C260.626 275.983 260.773 275.971 260.905 275.947C261.042 275.924 261.147 275.902 261.218 275.884L261.651 277.893C261.514 277.941 261.317 277.993 261.061 278.05C260.81 278.107 260.503 278.14 260.138 278.149C259.494 278.168 258.914 278.071 258.398 277.858C257.882 277.64 257.472 277.304 257.169 276.849C256.871 276.395 256.724 275.827 256.729 275.145V264.477ZM263.602 278V267.091H266.173V278H263.602ZM264.895 265.543C264.488 265.543 264.137 265.408 263.844 265.138C263.55 264.863 263.403 264.534 263.403 264.151C263.403 263.762 263.55 263.433 263.844 263.163C264.137 262.889 264.488 262.751 264.895 262.751C265.307 262.751 265.657 262.889 265.946 263.163C266.24 263.433 266.386 263.762 266.386 264.151C266.386 264.534 266.24 264.863 265.946 265.138C265.657 265.408 265.307 265.543 264.895 265.543ZM273.576 278.213C272.51 278.213 271.587 277.979 270.806 277.51C270.025 277.041 269.418 276.385 268.988 275.543C268.561 274.7 268.348 273.715 268.348 272.588C268.348 271.461 268.561 270.474 268.988 269.626C269.418 268.779 270.025 268.121 270.806 267.652C271.587 267.183 272.51 266.949 273.576 266.949C274.641 266.949 275.564 267.183 276.346 267.652C277.127 268.121 277.73 268.779 278.157 269.626C278.587 270.474 278.803 271.461 278.803 272.588C278.803 273.715 278.587 274.7 278.157 275.543C277.73 276.385 277.127 277.041 276.346 277.51C275.564 277.979 274.641 278.213 273.576 278.213ZM273.59 276.153C274.167 276.153 274.65 275.995 275.039 275.678C275.427 275.356 275.716 274.925 275.905 274.385C276.099 273.845 276.196 273.244 276.196 272.581C276.196 271.913 276.099 271.31 275.905 270.77C275.716 270.225 275.427 269.792 275.039 269.47C274.65 269.148 274.167 268.987 273.59 268.987C272.998 268.987 272.506 269.148 272.113 269.47C271.724 269.792 271.433 270.225 271.239 270.77C271.05 271.31 270.955 271.913 270.955 272.581C270.955 273.244 271.05 273.845 271.239 274.385C271.433 274.925 271.724 275.356 272.113 275.678C272.506 275.995 272.998 276.153 273.59 276.153ZM283.556 271.608V278H280.985V267.091H283.442V268.945H283.57C283.821 268.334 284.221 267.848 284.771 267.489C285.325 267.129 286.009 266.949 286.823 266.949C287.576 266.949 288.232 267.11 288.79 267.432C289.354 267.754 289.79 268.22 290.097 268.831C290.41 269.442 290.564 270.183 290.559 271.054V278H287.988V271.452C287.988 270.723 287.799 270.152 287.42 269.74C287.046 269.328 286.527 269.122 285.864 269.122C285.415 269.122 285.014 269.222 284.664 269.42C284.318 269.615 284.046 269.896 283.847 270.266C283.653 270.635 283.556 271.082 283.556 271.608Z" fill="#222A26"/>
    <rect x="65" y="336" width="185" height="63" rx="10" fill="#2BB8CB"/>
    <rect x="268" y="337" width="182" height="61" rx="9" fill="#FEFFFF" stroke="#DADADA" stroke-width="2"/>
    <path d="M335.435 373V358.455H340.889C342.007 358.455 342.944 358.649 343.702 359.037C344.464 359.425 345.039 359.97 345.428 360.67C345.821 361.366 346.017 362.179 346.017 363.107C346.017 364.039 345.818 364.849 345.42 365.536C345.027 366.217 344.447 366.745 343.68 367.119C342.913 367.489 341.971 367.673 340.854 367.673H336.969V365.486H340.499C341.152 365.486 341.687 365.396 342.104 365.216C342.52 365.031 342.828 364.764 343.027 364.413C343.231 364.058 343.332 363.623 343.332 363.107C343.332 362.59 343.231 362.15 343.027 361.786C342.823 361.416 342.513 361.137 342.097 360.947C341.68 360.753 341.143 360.656 340.484 360.656H338.07V373H335.435ZM342.949 366.409L346.55 373H343.609L340.072 366.409H342.949ZM353.002 373.213C351.908 373.213 350.964 372.986 350.168 372.531C349.378 372.072 348.769 371.423 348.343 370.585C347.917 369.742 347.704 368.75 347.704 367.609C347.704 366.487 347.917 365.502 348.343 364.655C348.774 363.803 349.375 363.14 350.147 362.666C350.919 362.188 351.826 361.949 352.867 361.949C353.54 361.949 354.174 362.058 354.771 362.276C355.372 362.489 355.902 362.82 356.362 363.27C356.826 363.72 357.19 364.293 357.455 364.989C357.72 365.68 357.853 366.504 357.853 367.46V368.249H348.911V366.516H355.388C355.384 366.023 355.277 365.585 355.069 365.202C354.861 364.813 354.569 364.508 354.195 364.286C353.826 364.063 353.395 363.952 352.903 363.952C352.377 363.952 351.915 364.08 351.518 364.335C351.12 364.586 350.81 364.918 350.587 365.33C350.37 365.737 350.258 366.184 350.254 366.672V368.185C350.254 368.819 350.37 369.364 350.602 369.818C350.834 370.268 351.158 370.614 351.575 370.855C351.991 371.092 352.479 371.21 353.038 371.21C353.412 371.21 353.75 371.158 354.053 371.054C354.356 370.945 354.619 370.786 354.842 370.578C355.064 370.37 355.232 370.112 355.346 369.804L357.746 370.074C357.595 370.708 357.306 371.262 356.88 371.736C356.459 372.205 355.919 372.569 355.261 372.83C354.603 373.085 353.85 373.213 353.002 373.213ZM368.65 364.974L366.306 365.23C366.24 364.993 366.124 364.771 365.958 364.562C365.797 364.354 365.58 364.186 365.305 364.058C365.03 363.93 364.694 363.866 364.297 363.866C363.761 363.866 363.312 363.982 362.947 364.214C362.587 364.446 362.41 364.747 362.414 365.116C362.41 365.434 362.526 365.692 362.762 365.891C363.004 366.089 363.402 366.253 363.956 366.381L365.816 366.778C366.849 367.001 367.616 367.354 368.118 367.837C368.624 368.32 368.88 368.952 368.885 369.733C368.88 370.42 368.679 371.026 368.281 371.551C367.888 372.072 367.341 372.479 366.64 372.773C365.94 373.066 365.135 373.213 364.225 373.213C362.89 373.213 361.815 372.934 361.001 372.375C360.187 371.812 359.701 371.028 359.545 370.024L362.052 369.783C362.166 370.275 362.407 370.647 362.777 370.898C363.146 371.149 363.627 371.274 364.218 371.274C364.829 371.274 365.319 371.149 365.689 370.898C366.063 370.647 366.25 370.337 366.25 369.967C366.25 369.655 366.129 369.397 365.887 369.193C365.651 368.99 365.281 368.833 364.779 368.724L362.919 368.334C361.872 368.116 361.098 367.749 360.596 367.233C360.094 366.712 359.846 366.054 359.85 365.259C359.846 364.586 360.028 364.004 360.397 363.511C360.771 363.014 361.29 362.631 361.953 362.361C362.62 362.086 363.39 361.949 364.261 361.949C365.539 361.949 366.546 362.221 367.279 362.766C368.018 363.31 368.475 364.046 368.65 364.974ZM375.834 373.213C374.74 373.213 373.796 372.986 373 372.531C372.21 372.072 371.601 371.423 371.175 370.585C370.749 369.742 370.536 368.75 370.536 367.609C370.536 366.487 370.749 365.502 371.175 364.655C371.606 363.803 372.207 363.14 372.979 362.666C373.751 362.188 374.658 361.949 375.699 361.949C376.372 361.949 377.006 362.058 377.603 362.276C378.204 362.489 378.734 362.82 379.194 363.27C379.658 363.72 380.022 364.293 380.287 364.989C380.552 365.68 380.685 366.504 380.685 367.46V368.249H371.743V366.516H378.221C378.216 366.023 378.109 365.585 377.901 365.202C377.693 364.813 377.401 364.508 377.027 364.286C376.658 364.063 376.227 363.952 375.735 363.952C375.209 363.952 374.748 364.08 374.35 364.335C373.952 364.586 373.642 364.918 373.419 365.33C373.202 365.737 373.09 366.184 373.086 366.672V368.185C373.086 368.819 373.202 369.364 373.434 369.818C373.666 370.268 373.99 370.614 374.407 370.855C374.823 371.092 375.311 371.21 375.87 371.21C376.244 371.21 376.582 371.158 376.885 371.054C377.188 370.945 377.451 370.786 377.674 370.578C377.896 370.37 378.064 370.112 378.178 369.804L380.578 370.074C380.427 370.708 380.138 371.262 379.712 371.736C379.291 372.205 378.751 372.569 378.093 372.83C377.435 373.085 376.682 373.213 375.834 373.213ZM388.308 362.091V364.08H382.036V362.091H388.308ZM383.585 359.477H386.156V369.719C386.156 370.064 386.208 370.33 386.312 370.514C386.421 370.694 386.563 370.817 386.738 370.884C386.913 370.95 387.107 370.983 387.32 370.983C387.481 370.983 387.628 370.971 387.761 370.947C387.898 370.924 388.002 370.902 388.073 370.884L388.506 372.893C388.369 372.941 388.173 372.993 387.917 373.05C387.666 373.107 387.358 373.14 386.994 373.149C386.35 373.168 385.77 373.071 385.254 372.858C384.737 372.64 384.328 372.304 384.025 371.849C383.727 371.395 383.58 370.827 383.585 370.145V359.477Z" fill="#222A26"/>
    <path d="M125.885 365.362H123.229C123.153 364.927 123.013 364.541 122.81 364.205C122.606 363.864 122.353 363.575 122.05 363.338C121.747 363.101 121.401 362.924 121.013 362.805C120.629 362.682 120.215 362.621 119.77 362.621C118.979 362.621 118.278 362.82 117.668 363.217C117.057 363.61 116.579 364.188 116.233 364.95C115.887 365.708 115.714 366.634 115.714 367.727C115.714 368.84 115.887 369.777 116.233 370.54C116.583 371.297 117.062 371.87 117.668 372.259C118.278 372.642 118.977 372.834 119.763 372.834C120.198 372.834 120.606 372.777 120.984 372.663C121.368 372.545 121.711 372.372 122.014 372.145C122.322 371.918 122.58 371.638 122.788 371.307C123.001 370.975 123.148 370.597 123.229 370.17L125.885 370.185C125.786 370.876 125.57 371.525 125.239 372.131C124.912 372.737 124.483 373.272 123.953 373.736C123.423 374.195 122.803 374.555 122.092 374.815C121.382 375.071 120.594 375.199 119.727 375.199C118.449 375.199 117.308 374.903 116.304 374.311C115.3 373.719 114.509 372.865 113.932 371.747C113.354 370.63 113.065 369.29 113.065 367.727C113.065 366.16 113.357 364.82 113.939 363.707C114.521 362.59 115.314 361.735 116.318 361.143C117.322 360.552 118.458 360.256 119.727 360.256C120.537 360.256 121.29 360.369 121.986 360.597C122.682 360.824 123.302 361.158 123.847 361.598C124.391 362.034 124.839 362.569 125.189 363.203C125.544 363.833 125.776 364.553 125.885 365.362ZM131.324 375.22C130.632 375.22 130.01 375.097 129.456 374.851C128.906 374.6 128.471 374.231 128.149 373.743C127.832 373.255 127.673 372.654 127.673 371.939C127.673 371.323 127.787 370.814 128.014 370.412C128.241 370.009 128.551 369.688 128.944 369.446C129.337 369.205 129.78 369.022 130.272 368.899C130.77 368.771 131.283 368.679 131.814 368.622C132.453 368.556 132.971 368.497 133.369 368.445C133.767 368.388 134.056 368.303 134.235 368.189C134.42 368.071 134.512 367.888 134.512 367.642V367.599C134.512 367.064 134.354 366.65 134.037 366.357C133.719 366.063 133.262 365.916 132.666 365.916C132.036 365.916 131.537 366.054 131.167 366.328C130.803 366.603 130.556 366.927 130.429 367.301L128.028 366.96C128.217 366.297 128.53 365.743 128.966 365.298C129.401 364.848 129.934 364.512 130.564 364.29C131.193 364.062 131.889 363.949 132.652 363.949C133.177 363.949 133.7 364.01 134.221 364.134C134.742 364.257 135.218 364.46 135.649 364.744C136.08 365.024 136.425 365.405 136.686 365.888C136.951 366.371 137.083 366.974 137.083 367.699V375H134.612V373.501H134.527C134.37 373.804 134.15 374.089 133.866 374.354C133.587 374.614 133.234 374.825 132.808 374.986C132.386 375.142 131.892 375.22 131.324 375.22ZM131.991 373.331C132.507 373.331 132.955 373.229 133.333 373.026C133.712 372.817 134.003 372.543 134.207 372.202C134.415 371.861 134.52 371.489 134.52 371.087V369.801C134.439 369.867 134.302 369.929 134.108 369.986C133.918 370.043 133.705 370.092 133.468 370.135C133.232 370.178 132.997 370.215 132.765 370.249C132.533 370.282 132.332 370.31 132.162 370.334C131.778 370.386 131.435 370.471 131.132 370.589C130.829 370.708 130.59 370.874 130.414 371.087C130.239 371.295 130.152 371.565 130.152 371.896C130.152 372.37 130.324 372.727 130.67 372.969C131.016 373.21 131.456 373.331 131.991 373.331ZM142.24 360.455V375H139.669V360.455H142.24ZM149.642 375.213C148.553 375.213 147.618 374.974 146.837 374.496C146.06 374.018 145.461 373.357 145.04 372.514C144.623 371.667 144.415 370.691 144.415 369.588C144.415 368.48 144.628 367.502 145.054 366.655C145.48 365.803 146.081 365.14 146.858 364.666C147.639 364.188 148.563 363.949 149.628 363.949C150.513 363.949 151.297 364.112 151.979 364.439C152.665 364.761 153.212 365.218 153.619 365.81C154.027 366.397 154.259 367.083 154.315 367.869H151.858C151.759 367.344 151.522 366.906 151.148 366.555C150.778 366.2 150.284 366.023 149.663 366.023C149.138 366.023 148.676 366.165 148.278 366.449C147.881 366.728 147.571 367.131 147.348 367.656C147.13 368.182 147.021 368.812 147.021 369.545C147.021 370.289 147.13 370.928 147.348 371.463C147.566 371.993 147.871 372.403 148.264 372.692C148.662 372.976 149.128 373.118 149.663 373.118C150.042 373.118 150.381 373.047 150.679 372.905C150.982 372.758 151.235 372.547 151.439 372.273C151.643 371.998 151.782 371.664 151.858 371.271H154.315C154.254 372.043 154.027 372.727 153.634 373.324C153.241 373.916 152.705 374.38 152.028 374.716C151.351 375.047 150.556 375.213 149.642 375.213ZM163.38 370.412V364.091H165.951V375H163.458V373.061H163.344C163.098 373.672 162.693 374.171 162.13 374.56C161.571 374.948 160.882 375.142 160.063 375.142C159.348 375.142 158.716 374.983 158.167 374.666C157.622 374.344 157.196 373.878 156.888 373.267C156.58 372.652 156.426 371.908 156.426 371.037V364.091H158.998V370.639C158.998 371.33 159.187 371.88 159.566 372.287C159.944 372.694 160.442 372.898 161.057 372.898C161.436 372.898 161.803 372.805 162.158 372.621C162.513 372.436 162.804 372.161 163.032 371.797C163.264 371.428 163.38 370.966 163.38 370.412ZM171.165 360.455V375H168.594V360.455H171.165ZM176.949 375.22C176.257 375.22 175.635 375.097 175.081 374.851C174.531 374.6 174.096 374.231 173.774 373.743C173.457 373.255 173.298 372.654 173.298 371.939C173.298 371.323 173.412 370.814 173.639 370.412C173.866 370.009 174.176 369.688 174.569 369.446C174.962 369.205 175.405 369.022 175.897 368.899C176.395 368.771 176.908 368.679 177.439 368.622C178.078 368.556 178.596 368.497 178.994 368.445C179.392 368.388 179.681 368.303 179.86 368.189C180.045 368.071 180.137 367.888 180.137 367.642V367.599C180.137 367.064 179.979 366.65 179.662 366.357C179.344 366.063 178.887 365.916 178.291 365.916C177.661 365.916 177.162 366.054 176.792 366.328C176.428 366.603 176.181 366.927 176.054 367.301L173.653 366.96C173.842 366.297 174.155 365.743 174.591 365.298C175.026 364.848 175.559 364.512 176.189 364.29C176.818 364.062 177.514 363.949 178.277 363.949C178.802 363.949 179.325 364.01 179.846 364.134C180.367 364.257 180.843 364.46 181.274 364.744C181.705 365.024 182.05 365.405 182.311 365.888C182.576 366.371 182.708 366.974 182.708 367.699V375H180.237V373.501H180.152C179.995 373.804 179.775 374.089 179.491 374.354C179.212 374.614 178.859 374.825 178.433 374.986C178.011 375.142 177.517 375.22 176.949 375.22ZM177.616 373.331C178.132 373.331 178.58 373.229 178.958 373.026C179.337 372.817 179.628 372.543 179.832 372.202C180.04 371.861 180.145 371.489 180.145 371.087V369.801C180.064 369.867 179.927 369.929 179.733 369.986C179.543 370.043 179.33 370.092 179.093 370.135C178.857 370.178 178.622 370.215 178.39 370.249C178.158 370.282 177.957 370.31 177.787 370.334C177.403 370.386 177.06 370.471 176.757 370.589C176.454 370.708 176.215 370.874 176.039 371.087C175.864 371.295 175.777 371.565 175.777 371.896C175.777 372.37 175.949 372.727 176.295 372.969C176.641 373.21 177.081 373.331 177.616 373.331ZM190.741 364.091V366.08H184.47V364.091H190.741ZM186.018 361.477H188.589V371.719C188.589 372.064 188.641 372.33 188.745 372.514C188.854 372.694 188.996 372.817 189.172 372.884C189.347 372.95 189.541 372.983 189.754 372.983C189.915 372.983 190.062 372.971 190.194 372.947C190.332 372.924 190.436 372.902 190.507 372.884L190.94 374.893C190.803 374.941 190.606 374.993 190.35 375.05C190.1 375.107 189.792 375.14 189.427 375.149C188.783 375.168 188.203 375.071 187.687 374.858C187.171 374.64 186.761 374.304 186.458 373.849C186.16 373.395 186.013 372.827 186.018 372.145V361.477ZM197.604 375.213C196.51 375.213 195.565 374.986 194.77 374.531C193.979 374.072 193.371 373.423 192.945 372.585C192.518 371.742 192.305 370.75 192.305 369.609C192.305 368.487 192.518 367.502 192.945 366.655C193.375 365.803 193.977 365.14 194.749 364.666C195.52 364.188 196.427 363.949 197.469 363.949C198.141 363.949 198.776 364.058 199.372 364.276C199.973 364.489 200.504 364.82 200.963 365.27C201.427 365.72 201.792 366.293 202.057 366.989C202.322 367.68 202.455 368.504 202.455 369.46V370.249H193.513V368.516H199.99C199.985 368.023 199.879 367.585 199.67 367.202C199.462 366.813 199.171 366.508 198.797 366.286C198.428 366.063 197.997 365.952 197.504 365.952C196.979 365.952 196.517 366.08 196.119 366.335C195.722 366.586 195.411 366.918 195.189 367.33C194.971 367.737 194.86 368.184 194.855 368.672V370.185C194.855 370.819 194.971 371.364 195.203 371.818C195.435 372.268 195.759 372.614 196.176 372.855C196.593 373.092 197.08 373.21 197.639 373.21C198.013 373.21 198.352 373.158 198.655 373.054C198.958 372.945 199.221 372.786 199.443 372.578C199.666 372.37 199.834 372.112 199.947 371.804L202.348 372.074C202.196 372.708 201.908 373.262 201.482 373.736C201.06 374.205 200.52 374.569 199.862 374.83C199.204 375.085 198.451 375.213 197.604 375.213Z" fill="white"/>
    <defs>
    <filter id="filter0_d_347_17" x="0" y="0" width="515" height="463" filterUnits="userSpaceOnUse" color-interpolation-filters="sRGB">
    <feFlood flood-opacity="0" result="BackgroundImageFix"/>
    <feColorMatrix in="SourceAlpha" type="matrix" values="0 0 0 0 0 0 0 0 0 0 0 0 0 0 0 0 0 0 127 0" result="hardAlpha"/>
    <feOffset dy="4"/>
    <feGaussianBlur stdDeviation="10"/>
    <feComposite in2="hardAlpha" operator="out"/>
    <feColorMatrix type="matrix" values="0 0 0 0 0 0 0 0 0 0 0 0 0 0 0 0 0 0 0.25 0"/>
    <feBlend mode="normal" in2="BackgroundImageFix" result="effect1_dropShadow_347_17"/>
    <feBlend mode="normal" in="SourceGraphic" in2="effect1_dropShadow_347_17" result="shape"/>
    </filter>
    </defs>
    </svg>
    