<svg width="153" height="194" viewBox="0 0 153 194" fill="none" xmlns="http://www.w3.org/2000/svg">
    <path d="M74.6167 44.2871C59.9807 45.8665 51.5717 47.3196 46.4092 52.121C40.342 57.7438 38.905 68.0417 37.3083 88.6374C35.6585 67.2835 34.1683 57.0488 27.5156 51.5524C22.3531 47.2564 13.9973 45.8665 0 44.3503C14.5827 42.7708 23.0449 41.3178 28.1542 36.5795C34.2747 30.8936 35.7117 20.6589 37.3083 0C38.7985 19.0163 40.1291 29.1878 45.0787 35.0632C50.0283 40.9387 58.6502 42.5813 74.6167 44.2871Z" fill="white"/>
    <path d="M152.689 160.689C137.065 161.871 128.089 162.959 122.578 166.552C116.101 170.76 114.567 178.467 112.863 193.88C111.101 177.899 109.511 170.24 102.409 166.127C96.8979 162.912 87.9781 161.871 73.0361 160.737C88.6031 159.555 97.6365 158.467 103.091 154.921C109.624 150.666 111.158 143.007 112.863 127.546C114.453 141.777 115.874 149.39 121.157 153.787C126.441 158.184 135.645 159.413 152.689 160.689Z" fill="white"/>
    <path d="M93.9942 63.0697C87.106 73.666 83.3002 78.9502 79.4629 78.9502C75.6257 78.9502 71.8199 73.666 64.9631 63.0697C71.8199 73.666 75.091 79.2578 73.1723 82.1934C71.2537 85.1291 64.1768 85.4367 50.4319 85.4367C64.6801 85.4367 71.757 85.7442 73.3611 88.9874C74.8708 92.0069 71.5997 97.5707 64.9631 107.804C71.8513 97.2073 75.6571 91.9231 79.4944 91.9231C83.3316 91.9231 87.1374 97.2073 94.0256 107.804C86.7286 96.5363 83.5204 90.9445 86.2253 88.1486C88.6157 85.6883 95.6612 85.4367 108.557 85.4367C94.0256 85.4367 86.9487 85.1011 85.5333 81.6622C84.2438 78.5868 87.5149 73.051 93.9942 63.0697Z" fill="white"/>
    </svg>
    