<svg width="71" height="77" viewBox="0 0 71 77" fill="none" xmlns="http://www.w3.org/2000/svg">
    <path d="M32.4762 6.8186L53.5655 14.0805C54.1536 14.2829 54.6677 14.6872 55.0327 15.2344C55.3976 15.7816 55.5943 16.443 55.5941 17.1222V22.7437H61.3735C62.1399 22.7437 62.8749 23.0793 63.4169 23.6766C63.9588 24.2739 64.2632 25.084 64.2632 25.9288V32.2988H26.6968V25.9288C26.6968 25.084 27.0012 24.2739 27.5431 23.6766C28.0851 23.0793 28.8201 22.7437 29.5865 22.7437H49.8146V19.4632L32.4762 13.4881L15.1379 19.4632V43.0451C15.1374 44.9951 15.5431 46.9191 16.3237 48.669C17.1043 50.4189 18.2388 51.948 19.6401 53.1385L20.1862 53.5716L32.4762 62.8114L43.4052 54.594H29.5865C28.8201 54.594 28.0851 54.2585 27.5431 53.6612C27.0012 53.0638 26.6968 52.2537 26.6968 51.409V38.6689H64.2632V51.409C64.2632 52.2537 63.9588 53.0638 63.4169 53.6612C62.8749 54.2585 62.1399 54.594 61.3735 54.594L52.0686 54.5972C50.9503 56.2216 49.5921 57.6548 48.023 58.8333L32.4762 70.5192L16.9295 58.8365C14.5961 57.083 12.6866 54.7278 11.3672 51.9757C10.0477 49.2236 9.35811 46.1578 9.3584 43.0451V17.1222C9.35875 16.4436 9.55573 15.7828 9.92063 15.2363C10.2855 14.6897 10.7993 14.2859 11.387 14.0837L32.4762 6.8186Z" fill="#5EB4B9"/>
    </svg>
    