<svg width="50" height="50" viewBox="0 0 50 50" fill="none" xmlns="http://www.w3.org/2000/svg">
    <circle cx="25.0687" cy="24.931" r="24.931" fill="#F7F7F7"/>
    <g clip-path="url(#clip0_303_102)">
    <path d="M37.2773 23.2896C37.2676 22.8121 37.2312 22.2086 37.1658 21.4814C37.1004 20.7518 37.0034 20.0998 36.8798 19.5254C36.7392 18.8806 36.4314 18.3377 35.9587 17.8941C35.4861 17.453 34.9359 17.1961 34.3081 17.1258C32.3472 16.9052 29.3828 16.7937 25.415 16.7937C21.4471 16.7937 18.4828 16.9052 16.5219 17.1258C15.8941 17.1961 15.3463 17.453 14.8785 17.8941C14.4107 18.3353 14.1053 18.8782 13.9647 19.5254C13.8314 20.0998 13.732 20.7518 13.6666 21.4814C13.6011 22.211 13.5623 22.8145 13.5551 23.2896C13.5454 23.7671 13.5405 24.4288 13.5405 25.2772C13.5405 26.1255 13.5454 26.7872 13.5551 27.2647C13.5648 27.7422 13.6011 28.3458 13.6666 29.0729C13.732 29.8025 13.829 30.4545 13.9526 31.029C14.0932 31.6737 14.401 32.2167 14.8736 32.6602C15.3463 33.1038 15.8965 33.3583 16.5243 33.4286C18.4828 33.6492 21.4471 33.7607 25.415 33.7607C29.3828 33.7607 32.3472 33.6492 34.3081 33.4286C34.9359 33.3583 35.4837 33.1014 35.9515 32.6602C36.4193 32.2191 36.7247 31.6737 36.8652 31.029C36.9986 30.4545 37.0979 29.8025 37.1634 29.0729C37.2288 28.3433 37.2676 27.7398 37.2749 27.2647C37.2846 26.7872 37.2894 26.1255 37.2894 25.2772C37.2918 24.4288 37.287 23.7671 37.2773 23.2896ZM30.1075 25.9922L23.3208 30.234C23.1971 30.3212 23.0469 30.3673 22.8699 30.3673C22.7366 30.3673 22.6009 30.3309 22.4603 30.2606C22.1694 30.1006 22.024 29.8534 22.024 29.5189V21.0354C22.024 20.7009 22.1694 20.4513 22.4603 20.2937C22.7609 20.1338 23.0469 20.1435 23.3208 20.3204L30.1075 24.5621C30.3717 24.7124 30.5051 24.95 30.5051 25.2772C30.5051 25.6044 30.3717 25.8419 30.1075 25.9922Z" fill="#2C3534"/>
    </g>
    <defs>
    <clipPath id="clip0_303_102">
    <rect width="24.2385" height="24.2385" fill="white" transform="translate(13.2959 13.158)"/>
    </clipPath>
    </defs>
    </svg>
    