<svg width="65" height="65" viewBox="0 0 65 65" fill="none" xmlns="http://www.w3.org/2000/svg">
    <path d="M0 0H65V65H0V0Z" fill="white" fill-opacity="0.01"/>
    <path d="M18.9582 20.3124C26.437 20.3124 32.4998 17.281 32.4998 13.5416C32.4998 9.80216 26.437 6.77075 18.9582 6.77075C11.4793 6.77075 5.4165 9.80216 5.4165 13.5416C5.4165 17.281 11.4793 20.3124 18.9582 20.3124Z" stroke="#5FB3B9" stroke-width="5" stroke-linecap="round" stroke-linejoin="round"/>
    <path d="M5.4165 13.5415V23.0207C5.4165 26.7601 11.4793 29.7915 18.9582 29.7915C26.437 29.7915 32.4998 26.7601 32.4998 23.0207C32.4998 20.8058 32.4998 13.5415 32.4998 13.5415" stroke="#5FB3B9" stroke-width="5" stroke-linecap="round" stroke-linejoin="round"/>
    <path d="M5.4165 23.0208V32.4999C5.4165 36.2393 11.4793 39.2708 18.9582 39.2708C26.437 39.2708 32.4998 36.2393 32.4998 32.4999C32.4998 30.285 32.4998 23.0208 32.4998 23.0208" stroke="#5FB3B9" stroke-width="5" stroke-linecap="round" stroke-linejoin="round"/>
    <path d="M5.4165 32.5V41.9792C5.4165 45.7186 11.4793 48.75 18.9582 48.75C26.437 48.75 32.4998 45.7186 32.4998 41.9792C32.4998 39.7643 32.4998 32.5 32.4998 32.5" stroke="#5FB3B9" stroke-width="5" stroke-linecap="round" stroke-linejoin="round"/>
    <path d="M5.4165 41.979V51.4582C5.4165 55.1976 11.4793 58.229 18.9582 58.229C26.437 58.229 32.4998 55.1976 32.4998 51.4582C32.4998 49.2433 32.4998 41.979 32.4998 41.979" stroke="#5FB3B9" stroke-width="5" stroke-linecap="round" stroke-linejoin="round"/>
    <path d="M46.0417 39.2707C53.5205 39.2707 59.5833 36.2393 59.5833 32.4998C59.5833 28.7604 53.5205 25.729 46.0417 25.729C38.5628 25.729 32.5 28.7604 32.5 32.4998C32.5 36.2393 38.5628 39.2707 46.0417 39.2707Z" stroke="#5FB3B9" stroke-width="5" stroke-linecap="round" stroke-linejoin="round"/>
    <path d="M32.5 32.5V41.9792C32.5 45.7186 38.5629 48.75 46.0417 48.75C53.5205 48.75 59.5833 45.7186 59.5833 41.9792C59.5833 39.7643 59.5833 32.5 59.5833 32.5" stroke="#5FB3B9" stroke-width="5" stroke-linecap="round" stroke-linejoin="round"/>
    <path d="M32.5 41.979V51.4582C32.5 55.1976 38.5629 58.229 46.0417 58.229C53.5205 58.229 59.5833 55.1976 59.5833 51.4582C59.5833 49.2433 59.5833 41.979 59.5833 41.979" stroke="#5FB3B9" stroke-width="5" stroke-linecap="round" stroke-linejoin="round"/>
    </svg>
    