<svg width="51" height="50" viewBox="0 0 51 50" fill="none" xmlns="http://www.w3.org/2000/svg">
    <circle cx="25.3563" cy="24.931" r="24.931" fill="#F7F7F7"/>
    <g clip-path="url(#clip0_303_97)">
    <path d="M31.4229 26.1205C31.4229 29.5782 28.6188 32.3824 25.161 32.3824C21.7033 32.3824 18.8992 29.5782 18.8992 26.1205C18.8992 25.7092 18.9403 25.3069 19.018 24.9161H14.8062V33.2394C14.8062 35.0265 16.2528 36.4754 18.0422 36.4754H32.2799C34.067 36.4754 35.5159 35.0265 35.5159 33.2394V24.9161H31.3063C31.3818 25.3069 31.4229 25.7092 31.4229 26.1205ZM32.2799 15.7656H18.0422C16.2551 15.7656 14.8062 17.2145 14.8062 19.0017V22.5074H20.0487C21.1823 20.9054 23.0494 19.8587 25.161 19.8587C27.2727 19.8587 29.1398 20.9054 30.2734 22.5074H35.5159V19.0017C35.5159 17.2145 34.067 15.7656 32.2799 15.7656ZM33.8636 19.7627C33.8636 20.0826 33.6031 20.3409 33.2854 20.3409H31.5532C31.2355 20.3409 30.975 20.0804 30.975 19.7627V18.0281C30.975 17.7082 31.2355 17.4499 31.5532 17.4499H33.2854C33.6054 17.4499 33.8636 17.7105 33.8636 18.0281V19.7627ZM29.0141 26.1205C29.0141 23.9906 27.2887 22.2674 25.161 22.2674C23.0334 22.2674 21.308 23.9906 21.308 26.1205C21.308 28.2505 23.0334 29.9736 25.161 29.9736C27.2887 29.9736 29.0141 28.2482 29.0141 26.1205Z" fill="#2C3534"/>
    </g>
    <defs>
    <clipPath id="clip0_303_97">
    <rect width="22.8534" height="22.8534" fill="white" transform="translate(12.8911 13.8506)"/>
    </clipPath>
    </defs>
    </svg>
    