<svg width="51" height="50" viewBox="0 0 51 50" fill="none" xmlns="http://www.w3.org/2000/svg">
    <circle cx="25.6439" cy="24.931" r="24.931" fill="#F7F7F7"/>
    <path d="M37.8665 17.9234C36.9309 18.3257 35.9977 18.5754 35.0621 18.6772C36.1165 18.0445 36.8315 17.1501 37.2024 15.994C36.2377 16.566 35.2076 16.9587 34.112 17.1695C33.1473 16.1442 31.962 15.6328 30.5538 15.6328C29.2085 15.6328 28.0596 16.1079 27.1095 17.058C26.1593 18.0082 25.6843 19.1547 25.6843 20.5023C25.6843 20.8635 25.7255 21.2368 25.8054 21.6173C23.8155 21.5179 21.9491 21.0162 20.2064 20.1169C18.4636 19.2177 16.9826 18.0203 15.7683 16.5224C15.3296 17.2738 15.1066 18.093 15.1066 18.9777C15.1066 19.8115 15.3029 20.5847 15.6956 21.2998C16.0882 22.0124 16.6142 22.5917 17.2783 23.0328C16.4954 23.0037 15.761 22.7977 15.0775 22.4147V22.4753C15.0775 23.6509 15.4459 24.6835 16.1852 25.573C16.9245 26.4626 17.8552 27.0225 18.9799 27.2528C18.5581 27.3643 18.1315 27.4176 17.6977 27.4176C17.4165 27.4176 17.1087 27.3933 16.779 27.3424C17.0917 28.3168 17.6637 29.1191 18.4975 29.7469C19.3313 30.3747 20.2766 30.6995 21.331 30.7189C19.5616 32.1053 17.5474 32.7985 15.2884 32.7985C14.8569 32.7985 14.4643 32.7791 14.1128 32.7379C16.3742 34.1947 18.866 34.9242 21.5879 34.9242C23.3162 34.9242 24.9401 34.6503 26.455 34.1026C27.9724 33.5548 29.2691 32.8203 30.3429 31.9017C31.4191 30.9831 32.345 29.9238 33.1231 28.7289C33.9011 27.5339 34.4828 26.2856 34.8634 24.984C35.2463 23.6824 35.4354 22.3784 35.4354 21.0719C35.4354 20.7908 35.4306 20.5799 35.4209 20.4393C36.3783 19.7461 37.1927 18.9074 37.8665 17.9234Z" fill="#2C3534"/>
    </svg>
    